<svg xmlns="http://www.w3.org/2000/svg" version="1.1" xmlns:xlink="http://www.w3.org/1999/xlink" xmlns:svgjs="http://svgjs.dev/svgjs" width="2000" height="1500" viewBox="0 0 2000 1500"><rect width="2000" height="1500" fill="#ececea"></rect><g transform="matrix(0.75,0,0,0.75,249.0913077568889,511.3276779074979)"><svg viewBox="0 0 396 126" data-background-color="#ececea" preserveAspectRatio="xMidYMid meet" height="636" width="2000" xmlns="http://www.w3.org/2000/svg" xmlns:xlink="http://www.w3.org/1999/xlink"><g id="tight-bounds" transform="matrix(1,0,0,1,0.2401052478186898,0.049312199736846196)"><svg viewBox="0 0 395.52 125.90137560052631" height="125.90137560052631" width="395.52"><g><svg viewBox="0 0 612.7311293663056 195.04371981311164" height="125.90137560052631" width="395.52"><g transform="matrix(1,0,0,1,0,26.956114677499514)"><svg viewBox="0 0 395.52 141.1314904581126" height="141.1314904581126" width="395.52"><g id="textblocktransform"><svg viewBox="0 0 395.52 141.1314904581126" height="141.1314904581126" width="395.52" id="textblock"><g><svg viewBox="0 0 395.52 93.89946268656716" height="93.89946268656716" width="395.52"><g transform="matrix(1,0,0,1,0,0)"><svg width="395.52" viewBox="1.5030556111149997 -36.973157891123996 240.6624999444406 57.143157891124" height="93.89946268656716" data-palette-color="#d6bc0e"><path d="M26.61-35.01L26.61-35.01Q26.76-34.57 26.76-34.42L26.76-34.42Q26.86-34.28 27.12-34.01 27.39-33.74 27.54-33.74L27.54-33.74Q28.1-33.74 28.2-33.69L28.2-33.69Q28.25-33.67 28.28-33.64 28.32-33.62 28.37-33.59L28.37-33.59Q28.37-33.06 28.42-33.01L28.42-33.01Q28.49-32.93 28.52-32.86L28.52-32.86Q28.52-32.59 28.42-32.18L28.42-32.18Q28.3-31.76 28.08-31.4L28.08-31.4 27.59-30.62Q27.34-30.22 27.08-29.88L27.08-29.88 26.56-29.2Q26.34-28.93 26.22-28.54L26.22-28.54Q26.1-28.2 25.73-27.93L25.73-27.93Q25.39-27.69 25.05-27.44 24.71-27.2 24.41-26.9L24.41-26.9 23.83-26.17Q23.73-25.93 23.56-25.76L23.56-25.76Q23.44-25.63 23.29-25.39L23.29-25.39Q23.02-25 22.83-24.51L22.83-24.51Q22.63-24.05 22.17-23.73L22.17-23.73Q21.44-22.44 20.61-21.48L20.61-21.48Q19.68-20.41 18.95-19.29L18.95-19.29Q19.56-19.24 20.04-19.31L20.04-19.31Q20.31-19.36 20.63-19.38 20.95-19.41 21.29-19.43L21.29-19.43Q22.75-19.53 24.02-19.58 25.29-19.63 26.56-19.63L26.56-19.63Q26.95-19.34 26.81-18.9L26.81-18.9Q26.56-18.9 26.44-18.77L26.44-18.77Q26.32-18.65 26.07-18.75L26.07-18.75Q25.85-18.63 25.83-18.51L25.83-18.51Q25.81-18.38 25.68-18.26L25.68-18.26Q25.39-17.41 24.39-17.36L24.39-17.36Q23.9-17.33 23.44-17.31 22.97-17.29 22.56-17.24L22.56-17.24Q22.05-17.21 22-17.16L22-17.16Q21.97-17.14 21.92-17.14L21.92-17.14 20.14-16.92Q19.68-16.87 19.24-16.81 18.8-16.75 18.36-16.7L18.36-16.7Q18.09-16.5 17.8-16.58L17.8-16.58Q17.46-16.65 17.24-16.55L17.24-16.55Q17.07-16.43 17.04-16.31L17.04-16.31Q17.02-16.16 16.89-16.02L16.89-16.02Q16.67-15.75 16.46-15.38L16.46-15.38Q16.24-15.01 16.02-14.75L16.02-14.75Q15.55-14.28 15.14-13.57L15.14-13.57Q14.92-13.4 14.82-13.23L14.82-13.23Q14.7-13.01 14.55-12.84L14.55-12.84Q13.79-11.79 12.84-10.64L12.84-10.64Q12.72-10.42 12.59-10.21 12.45-9.99 12.33-9.79L12.33-9.79 11.77-8.89Q11.47-8.33 11.28-7.67L11.28-7.67Q11.11-7.23 10.96-7.01L10.96-7.01Q10.86-6.88 10.8-6.73 10.74-6.57 10.69-6.4L10.69-6.4Q10.45-6.01 10.21-5.57 9.96-5.13 9.72-4.64L9.72-4.64Q9.08-3.66 8.37-2.56 7.67-1.46 7.03-0.29L7.03-0.29Q6.93-0.15 6.85 0 6.76 0.15 6.69 0.32L6.69 0.32Q6.54 0.63 6.3 0.88L6.3 0.88Q6.15 1.07 5.98 1.17L5.98 1.17Q5.88 1.22 5.81 1.27 5.74 1.32 5.66 1.37L5.66 1.37Q5.27 1.66 4.74 2 4.2 2.34 3.81 2.59L3.81 2.59Q3.27 2.78 3.08 3.08 2.88 3.37 2.78 3.71L2.78 3.71Q2.05 4.05 1.76 3.71 1.46 3.37 1.51 3.08L1.51 3.08Q1.51 2.88 1.78 2.54L1.78 2.54Q1.9 2.37 2 2.23 2.1 2.1 2.15 2L2.15 2 2.64 1.27Q2.78 0.88 2.86 0.73 2.93 0.59 3.03 0.44L3.03 0.44 3.2 0.15Q3.27 0.02 3.27-0.15L3.27-0.15Q3.52-0.42 3.66-0.76L3.66-0.76Q3.74-0.93 3.82-1.09 3.91-1.25 4-1.42L4-1.42Q4.42-1.83 4.69-2.34L4.69-2.34Q4.96-2.86 5.42-3.32L5.42-3.32Q5.52-3.61 5.66-3.81 5.81-4 6.01-4.2L6.01-4.2Q6.27-4.74 6.64-5.35L6.64-5.35Q6.96-5.88 7.08-6.69L7.08-6.69Q7.25-7.42 7.57-7.86L7.57-7.86Q7.84-8.23 8.11-8.69L8.11-8.69Q8.2-9.03 8.3-9.33 8.4-9.62 8.64-9.86L8.64-9.86Q8.94-10.35 9.13-10.74 9.33-11.13 9.57-11.62L9.57-11.62Q9.81-12.26 10.3-12.99L10.3-12.99Q10.35-13.06 10.4-13.13 10.45-13.21 10.5-13.26L10.5-13.26Q10.55-13.31 10.6-13.39 10.64-13.48 10.69-13.57L10.69-13.57Q10.91-13.94 11.01-14.21L11.01-14.21Q11.11-14.48 11.33-14.84L11.33-14.84Q11.45-15.06 11.65-15.26L11.65-15.26Q11.82-15.43 11.82-15.82L11.82-15.82Q11.4-15.92 11.04-15.72L11.04-15.72Q10.74-15.7 10.41-15.65 10.08-15.6 9.69-15.55L9.69-15.55Q8.84-15.43 8.15-15.43L8.15-15.43Q7.91-15.43 7.59-15.41 7.28-15.38 6.98-15.33L6.98-15.33 6.49-15.11Q6.25-15.01 6.01-15.23L6.01-15.23Q5.83-15.5 5.74-15.55L5.74-15.55Q5.64-15.6 5.62-15.67L5.62-15.67Q5.32-16.21 5.08-16.46L5.08-16.46Q5.03-16.53 4.96-16.72L4.96-16.72Q4.93-16.85 4.74-16.94L4.74-16.94Q4.59-17.09 4.44-17.48L4.44-17.48Q4.93-18.12 5.76-18.12L5.76-18.12Q6.84-18.36 7.9-18.53 8.96-18.7 10.01-18.8L10.01-18.8Q11.06-18.9 12.1-19.02 13.13-19.14 14.16-19.29L14.16-19.29Q14.33-19.41 14.38-19.56L14.38-19.56Q14.45-19.75 14.55-19.87L14.55-19.87Q14.67-20.02 14.81-20.17 14.94-20.31 15.06-20.43L15.06-20.43Q15.33-20.7 15.48-21.09L15.48-21.09Q15.7-21.22 15.72-21.34L15.72-21.34Q15.75-21.46 15.92-21.58L15.92-21.58Q16.11-21.85 16.14-22.02L16.14-22.02Q16.19-22.24 16.26-22.31L16.26-22.31Q16.85-23.07 16.99-23.36L16.99-23.36Q17.19-23.71 17.43-24.02L17.43-24.02Q17.55-24.19 17.68-24.35 17.8-24.51 17.92-24.63L17.92-24.63Q18.04-24.76 18.16-24.9 18.29-25.05 18.41-25.2L18.41-25.2Q18.51-25.32 18.59-25.42 18.68-25.51 18.75-25.61L18.75-25.61 19.04-25.98Q19.43-26.64 20.07-27.39L20.07-27.39Q20.61-28 20.95-28.76L20.95-28.76Q21.24-28.78 21.31-29.03L21.31-29.03Q21.39-29.22 21.58-29.39L21.58-29.39Q21.83-29.96 22.17-30.44L22.17-30.44Q22.51-30.93 22.75-31.49L22.75-31.49Q22.49-31.54 22.17-31.4L22.17-31.4Q21.85-31.25 21.44-31.25L21.44-31.25Q21.19-31.2 21-31.15 20.8-31.1 20.65-31.05L20.65-31.05Q20.51-31.01 20.34-30.96 20.17-30.91 19.97-30.86L19.97-30.86Q19.24-30.76 18.43-30.42L18.43-30.42Q18.04-30.25 17.65-30.11 17.26-29.98 16.89-29.88L16.89-29.88Q15.97-29.79 15.09-29.69 14.21-29.59 13.38-29.49L13.38-29.49Q12.55-29.39 11.71-29.31 10.86-29.22 10.01-29.15L10.01-29.15Q9.81-29.13 9.62-29.1 9.42-29.08 9.23-29.05L9.23-29.05Q9.03-29.03 8.84-29.02 8.64-29 8.45-29L8.45-29Q7.67-29 6.88-28.86L6.88-28.86Q6.64-28.91 6.45-28.86L6.45-28.86Q6.27-28.83 6.01-28.86L6.01-28.86Q5.42-29.05 5.27-29.15L5.27-29.15Q5.15-29.25 4.88-29.25L4.88-29.25Q4.64-29.39 4.59-29.44L4.59-29.44Q4.49-29.54 4.39-29.54L4.39-29.54Q4.05-29.98 4-30.1 3.96-30.22 4.3-30.42L4.3-30.42Q4.49-30.91 5.1-31.01L5.1-31.01Q5.69-31.1 6.1-31.3L6.1-31.3Q6.45-31.37 6.79-31.45 7.13-31.52 7.45-31.57L7.45-31.57Q7.79-31.62 8.13-31.69 8.47-31.76 8.84-31.84L8.84-31.84Q9.23-31.96 9.53-32.02 9.84-32.08 10.06-32.1L10.06-32.1Q10.47-32.13 10.89-32.32L10.89-32.32Q11.62-32.37 12.28-32.54L12.28-32.54Q12.62-32.64 12.95-32.71 13.28-32.79 13.62-32.86L13.62-32.86Q13.75-32.93 14.04-32.98L14.04-32.98Q14.28-33.03 14.4-33.15L14.4-33.15Q14.94-33.15 14.94-33.25L14.94-33.25Q16.19-33.5 17.4-33.78 18.6-34.06 19.78-34.38L19.78-34.38Q22.12-35.01 24.71-35.25L24.71-35.25Q25.78-35.38 26.61-35.01ZM43.26-14.11L43.26-14.11Q43.5-14.09 43.58-13.92L43.58-13.92Q43.65-13.77 43.85-13.77L43.85-13.77Q43.94-13.31 43.65-13.12 43.36-12.94 43.45-12.55L43.45-12.55Q43.02-12.26 42.38-12.18L42.38-12.18Q41.72-12.11 41.4-11.67L41.4-11.67Q40.55-11.25 39.62-11.16L39.62-11.16Q39.16-11.11 38.66-11.02 38.16-10.94 37.64-10.84L37.64-10.84Q37.11-10.47 36.98-10.45L36.98-10.45Q36.81-10.42 36.62-10.3L36.62-10.3Q36.11-10.5 35.59-10.5L35.59-10.5Q35.08-10.5 34.52-10.64L34.52-10.64Q34.25-10.55 33.96-10.55L33.96-10.55Q33.66-10.55 33.4-10.45L33.4-10.45Q33.2-10.01 33.2-9.57L33.2-9.57Q33.2-9.11 33.05-8.69L33.05-8.69 32.76-8.11 32.69-7.64Q32.64-7.35 32.57-7.18L32.57-7.18Q32.47-7.03 32.35-6.84 32.22-6.64 32.22-6.4L32.22-6.4Q31.88-5.96 31.74-5.49L31.74-5.49Q31.59-4.96 31.2-4.64L31.2-4.64Q31.05-4.13 30.73-3.86L30.73-3.86Q30.42-3.56 30.12-3.17L30.12-3.17Q29.59-2.44 29.17-1.9 28.76-1.37 28.07-0.98L28.07-0.98Q27.83-0.59 27.49-0.44L27.49-0.44Q27.24-0.2 27.1 0.05L27.1 0.05 26.12 0.63Q25.53 1 25 1.12L25 1.12Q24.17 1.32 23.39 1.07 22.6 0.83 21.92 0.39L21.92 0.39Q21.46 0.44 21.21 0.22L21.21 0.22Q20.97 0.02 20.55-0.1L20.55-0.1Q20.02-0.59 19.38-0.98L19.38-0.98Q18.72-1.39 18.45-2.05L18.45-2.05 18.23-3.13Q18.14-3.61 18.02-4.1L18.02-4.1Q17.92-4.52 17.99-5.03L17.99-5.03Q18.06-5.47 18.02-6.01L18.02-6.01Q18.02-6.27 18.02-6.51 18.02-6.74 17.99-6.91L17.99-6.91Q17.97-7.28 18.21-7.81L18.21-7.81Q18.36-8.13 18.45-8.4 18.55-8.67 18.6-8.86L18.6-8.86Q18.65-9.06 18.7-9.24 18.75-9.42 18.8-9.57L18.8-9.57Q18.87-9.69 18.94-9.83 19.02-9.96 19.09-10.11L19.09-10.11Q19.16-10.25 19.25-10.39 19.33-10.52 19.43-10.64L19.43-10.64Q19.72-11.08 20.11-11.52 20.51-11.96 20.9-12.35L20.9-12.35Q21.16-12.72 21.43-12.99L21.43-12.99Q21.87-13.43 22.26-13.72L22.26-13.72Q22.65-14.01 23.14-14.5L23.14-14.5Q23.24-14.65 23.39-14.75L23.39-14.75 23.68-14.94Q24.17-15.23 24.58-15.43 25-15.63 25.53-15.87L25.53-15.87Q26-16.09 26.29-16.14L26.29-16.14Q26.49-16.19 26.69-16.22 26.9-16.26 27.15-16.31L27.15-16.31 27.73-16.31Q28-16.31 28.22-16.41L28.22-16.41Q28.07-16.8 28.56-16.94 29.05-17.09 29.29-17.04L29.29-17.04Q29.78-17.04 30.08-16.82 30.37-16.6 30.61-16.31L30.61-16.31Q31.1-15.97 31.69-15.28L31.69-15.28Q31.81-15.16 31.93-15.14L31.93-15.14Q32.05-15.11 32.18-14.99L32.18-14.99Q32.37-14.7 32.44-14.45L32.44-14.45Q32.52-14.16 32.76-13.92L32.76-13.92Q32.91-13.82 33.05-13.67 33.2-13.53 33.25-13.28L33.25-13.28Q33.76-13.09 34.18-12.99L34.18-12.99Q34.4-12.89 34.69-12.94L34.69-12.94Q34.96-12.99 35.3-12.94L35.3-12.94Q35.52-12.92 35.74-12.82L35.74-12.82Q35.94-12.74 36.18-12.74L36.18-12.74Q36.55-12.77 36.98-12.94L36.98-12.94Q37.4-13.09 37.94-12.99L37.94-12.99Q38.67-12.82 39.48-13.13L39.48-13.13Q40.28-13.48 41.11-13.57L41.11-13.57Q41.35-13.57 41.45-13.6L41.45-13.6Q41.55-13.62 41.79-13.62L41.79-13.62Q42.04-13.82 42.43-13.92 42.82-14.01 43.26-14.11ZM29.29-12.65L29.29-12.65Q28.81-13.09 28.73-13.21L28.73-13.21Q28.64-13.35 28.56-13.38L28.56-13.38Q28.34-13.6 28.07-13.62L28.07-13.62Q27.93-13.65 27.79-13.67 27.66-13.7 27.54-13.72L27.54-13.72Q26.76-13.87 26.24-13.55L26.24-13.55Q26-13.38 25.74-13.23 25.49-13.09 25.24-12.94L25.24-12.94Q24.46-12.45 23.87-11.72L23.87-11.72Q23.73-11.47 23.56-11.18 23.39-10.89 23.29-10.55L23.29-10.55Q23.09-10.16 22.95-9.84 22.8-9.52 22.7-9.08L22.7-9.08Q22.46-8.62 22.41-8.28L22.41-8.28Q22.39-8.11 22.36-7.97 22.34-7.84 22.31-7.71L22.31-7.71Q22.29-7.47 22.24-7.21 22.19-6.96 22.14-6.69L22.14-6.69Q22.02-6.08 22.02-5.76L22.02-5.76Q22.07-5.62 22.17-5.37 22.26-5.13 22.36-5.03L22.36-5.03Q22.46-4.79 22.58-4.49 22.7-4.2 22.8-4.05L22.8-4.05Q23.07-3.71 23.43-3.61L23.43-3.61Q23.63-3.56 23.85-3.5 24.07-3.44 24.31-3.37L24.31-3.37Q24.85-3.08 25.05-3.13L25.05-3.13Q25.29-3.17 25.34-3.17L25.34-3.17Q26-3.3 26.46-3.71L26.46-3.71Q26.88-4.1 27.44-4.39L27.44-4.39Q27.63-4.69 27.84-5 28.05-5.32 28.29-5.64L28.29-5.64Q28.54-5.98 28.75-6.31 28.95-6.64 29.15-6.98L29.15-6.98Q29.27-7.13 29.39-7.42L29.39-7.42Q29.44-7.54 29.49-7.65 29.54-7.76 29.59-7.86L29.59-7.86Q29.93-8.28 29.9-8.3L29.9-8.3Q29.88-8.33 29.93-8.45L29.93-8.45Q30.25-9.18 30.22-9.57L30.22-9.57Q30.2-9.96 30.22-10.35L30.22-10.35Q30.1-10.62 30-10.91 29.9-11.21 29.81-11.52L29.81-11.52Q29.61-12.18 29.29-12.65ZM61.86-14.11L61.86-14.11Q62.1-14.09 62.18-13.92L62.18-13.92Q62.25-13.77 62.45-13.77L62.45-13.77Q62.54-13.31 62.25-13.12 61.96-12.94 62.06-12.55L62.06-12.55Q61.62-12.26 60.98-12.18L60.98-12.18Q60.32-12.11 60-11.67L60-11.67Q59.15-11.25 58.22-11.16L58.22-11.16Q57.76-11.11 57.26-11.02 56.76-10.94 56.25-10.84L56.25-10.84Q55.71-10.47 55.59-10.45L55.59-10.45Q55.41-10.42 55.22-10.3L55.22-10.3Q54.71-10.5 54.19-10.5L54.19-10.5Q53.68-10.5 53.12-10.64L53.12-10.64Q52.85-10.55 52.56-10.55L52.56-10.55Q52.27-10.55 52-10.45L52-10.45Q51.8-10.01 51.8-9.57L51.8-9.57Q51.8-9.11 51.66-8.69L51.66-8.69 51.36-8.11 51.29-7.64Q51.24-7.35 51.17-7.18L51.17-7.18Q51.07-7.03 50.95-6.84 50.83-6.64 50.83-6.4L50.83-6.4Q50.48-5.96 50.34-5.49L50.34-5.49Q50.19-4.96 49.8-4.64L49.8-4.64Q49.65-4.13 49.34-3.86L49.34-3.86Q49.02-3.56 48.73-3.17L48.73-3.17Q48.19-2.44 47.77-1.9 47.36-1.37 46.67-0.98L46.67-0.98Q46.43-0.59 46.09-0.44L46.09-0.44Q45.84-0.2 45.7 0.05L45.7 0.05 44.72 0.63Q44.14 1 43.6 1.12L43.6 1.12Q42.77 1.32 41.99 1.07 41.21 0.83 40.52 0.39L40.52 0.39Q40.06 0.44 39.81 0.22L39.81 0.22Q39.57 0.02 39.16-0.1L39.16-0.1Q38.62-0.59 37.98-0.98L37.98-0.98Q37.32-1.39 37.06-2.05L37.06-2.05 36.84-3.13Q36.74-3.61 36.62-4.1L36.62-4.1Q36.52-4.52 36.59-5.03L36.59-5.03Q36.66-5.47 36.62-6.01L36.62-6.01Q36.62-6.27 36.62-6.51 36.62-6.74 36.59-6.91L36.59-6.91Q36.57-7.28 36.81-7.81L36.81-7.81Q36.96-8.13 37.06-8.4 37.15-8.67 37.2-8.86L37.2-8.86Q37.25-9.06 37.3-9.24 37.35-9.42 37.4-9.57L37.4-9.57Q37.47-9.69 37.54-9.83 37.62-9.96 37.69-10.11L37.69-10.11Q37.76-10.25 37.85-10.39 37.93-10.52 38.03-10.64L38.03-10.64Q38.33-11.08 38.72-11.52 39.11-11.96 39.5-12.35L39.5-12.35Q39.77-12.72 40.03-12.99L40.03-12.99Q40.47-13.43 40.86-13.72L40.86-13.72Q41.25-14.01 41.74-14.5L41.74-14.5Q41.84-14.65 41.99-14.75L41.99-14.75 42.28-14.94Q42.77-15.23 43.18-15.43 43.6-15.63 44.14-15.87L44.14-15.87Q44.6-16.09 44.89-16.14L44.89-16.14Q45.09-16.19 45.3-16.22 45.5-16.26 45.75-16.31L45.75-16.31 46.33-16.31Q46.6-16.31 46.82-16.41L46.82-16.41Q46.67-16.8 47.16-16.94 47.65-17.09 47.9-17.04L47.9-17.04Q48.38-17.04 48.68-16.82 48.97-16.6 49.21-16.31L49.21-16.31Q49.7-15.97 50.29-15.28L50.29-15.28Q50.41-15.16 50.53-15.14L50.53-15.14Q50.65-15.11 50.78-14.99L50.78-14.99Q50.97-14.7 51.04-14.45L51.04-14.45Q51.12-14.16 51.36-13.92L51.36-13.92Q51.51-13.82 51.66-13.67 51.8-13.53 51.85-13.28L51.85-13.28Q52.36-13.09 52.78-12.99L52.78-12.99Q53-12.89 53.29-12.94L53.29-12.94Q53.56-12.99 53.9-12.94L53.9-12.94Q54.12-12.92 54.34-12.82L54.34-12.82Q54.54-12.74 54.78-12.74L54.78-12.74Q55.15-12.77 55.59-12.94L55.59-12.94Q56-13.09 56.54-12.99L56.54-12.99Q57.27-12.82 58.08-13.13L58.08-13.13Q58.88-13.48 59.71-13.57L59.71-13.57Q59.96-13.57 60.05-13.6L60.05-13.6Q60.15-13.62 60.4-13.62L60.4-13.62Q60.64-13.82 61.03-13.92 61.42-14.01 61.86-14.11ZM47.9-12.65L47.9-12.65Q47.41-13.09 47.33-13.21L47.33-13.21Q47.24-13.35 47.16-13.38L47.16-13.38Q46.94-13.6 46.67-13.62L46.67-13.62Q46.53-13.65 46.39-13.67 46.26-13.7 46.14-13.72L46.14-13.72Q45.36-13.87 44.84-13.55L44.84-13.55Q44.6-13.38 44.34-13.23 44.09-13.09 43.84-12.94L43.84-12.94Q43.06-12.45 42.48-11.72L42.48-11.72Q42.33-11.47 42.16-11.18 41.99-10.89 41.89-10.55L41.89-10.55Q41.69-10.16 41.55-9.84 41.4-9.52 41.3-9.08L41.3-9.08Q41.06-8.62 41.01-8.28L41.01-8.28Q40.99-8.11 40.96-7.97 40.94-7.84 40.91-7.71L40.91-7.71Q40.89-7.47 40.84-7.21 40.79-6.96 40.74-6.69L40.74-6.69Q40.62-6.08 40.62-5.76L40.62-5.76Q40.67-5.62 40.77-5.37 40.86-5.13 40.96-5.03L40.96-5.03Q41.06-4.79 41.18-4.49 41.3-4.2 41.4-4.05L41.4-4.05Q41.67-3.71 42.04-3.61L42.04-3.61Q42.23-3.56 42.45-3.5 42.67-3.44 42.91-3.37L42.91-3.37Q43.45-3.08 43.65-3.13L43.65-3.13Q43.89-3.17 43.94-3.17L43.94-3.17Q44.6-3.3 45.06-3.71L45.06-3.71Q45.48-4.1 46.04-4.39L46.04-4.39Q46.24-4.69 46.44-5 46.65-5.32 46.89-5.64L46.89-5.64Q47.14-5.98 47.35-6.31 47.55-6.64 47.75-6.98L47.75-6.98Q47.87-7.13 47.99-7.42L47.99-7.42Q48.04-7.54 48.09-7.65 48.14-7.76 48.19-7.86L48.19-7.86Q48.53-8.28 48.51-8.3L48.51-8.3Q48.48-8.33 48.53-8.45L48.53-8.45Q48.85-9.18 48.82-9.57L48.82-9.57Q48.8-9.96 48.82-10.35L48.82-10.35Q48.7-10.62 48.6-10.91 48.51-11.21 48.41-11.52L48.41-11.52Q48.21-12.18 47.9-12.65ZM72.99-4.2L72.99-4.2Q73.33-4.2 73.48-4.15L73.48-4.15Q73.63-4.1 73.72-4.1L73.72-4.1Q74.21-4.1 74.98-4.8 75.75-5.49 76.21-5.86L76.21-5.86Q77.21-6.08 77.84-7.14 78.46-8.2 79.24-8.98L79.24-8.98Q80.24-9.99 80.86-10.78 81.49-11.57 81.93-11.57L81.93-11.57Q82.32-11.57 82.49-11.21L82.49-11.21Q82.71-10.77 82.81-10.6L82.81-10.6Q82.71-10.5 82.71-10.3L82.71-10.3Q82.71-10.08 82.61-9.96L82.61-9.96Q82.51-9.81 82.32-9.67L82.32-9.67Q82.12-9.52 81.97-9.33L81.97-9.33 81.49-8.74Q80.85-8.11 80.29-7.13 79.73-6.15 79.18-5.29 78.63-4.42 78.02-4.05L78.02-4.05Q76.73-3.22 75.94-2.29L75.94-2.29Q75.19-1.39 74.26-0.83L74.26-0.83Q74.16-0.83 74.14-0.85L74.14-0.85Q74.11-0.88 74.06-0.88L74.06-0.88Q73.85-0.88 73.75-0.78L73.75-0.78Q73.65-0.68 73.48-0.68L73.48-0.68Q72.58-1.03 72.04-1.45 71.5-1.88 70.65-3.32L70.65-3.32Q70.43-3.69 70.26-4.13L70.26-4.13Q70.09-4.61 69.87-4.98L69.87-4.98 69.21-6.18Q68.94-6.67 68.94-7.81L68.94-7.81Q68.94-8.3 69.04-9.28 69.13-10.25 69.23-10.84L69.23-10.84Q68.47-10.08 67.84-8.96L67.84-8.96Q67.52-8.42 67.23-7.91 66.94-7.4 66.64-6.93L66.64-6.93Q65.86-5.74 64.96-4.57L64.96-4.57Q64.08-3.44 64.06-2.83L64.06-2.83Q63.76-2.54 63.42-1.98 63.08-1.42 62.9-1.01 62.71-0.61 62.88-0.78L62.88-0.78Q62.2 0.34 60.91 0.81 59.61 1.27 58.49 1.27L58.49 1.27Q58.27 1.25 58.05 1.22 57.83 1.2 57.61 1.17L57.61 1.17Q57.19 1.15 56.78 0.83L56.78 0.83 56.05 0.29Q55.27-0.1 54.97-0.93 54.68-1.76 54.68-2.73L54.68-2.73Q55.29-4.27 55.39-5.49L55.39-5.49Q55.49-6.69 55.95-7.86L55.95-7.86Q56.63-9.67 57.88-11.08 59.12-12.5 60.49-13.67L60.49-13.67Q61.59-14.6 63.02-15.71 64.45-16.82 65.08-17.58L65.08-17.58Q65.86-17.7 66.41-18.05 66.96-18.41 67.52-18.73 68.08-19.04 68.84-19.04L68.84-19.04Q69.96-19.04 70.16-18.65 70.35-18.26 70.74-17.58L70.74-17.58Q71.06-18.38 71.23-19.21L71.23-19.21Q71.33-19.63 71.46-20.02 71.6-20.41 71.77-20.75L71.77-20.75Q72.06-22.27 72.77-23.97 73.48-25.68 74.19-27.12L74.19-27.12Q74.77-28.3 75.35-29.36 75.92-30.42 76.12-30.71L76.12-30.71Q76.87-31.88 77.75-32.69L77.75-32.69Q78.61-33.5 79.24-34.42L79.24-34.42Q79.73-35.01 80.19-35.77L80.19-35.77Q80.68-36.6 80.95-36.77L80.95-36.77Q82.32-36.4 82.39-35.69 82.46-34.99 82.46-34.08L82.46-34.08Q82.46-33.3 82.32-32.52L82.32-32.52 80.66-29.05Q79.97-27.78 79.36-26.46 78.75-25.15 78.22-23.78L78.22-23.78Q77.31-22.02 76.24-20.7L76.24-20.7Q75.7-20.04 75.22-19.34 74.75-18.63 74.31-17.87L74.31-17.87Q74.14-17.36 73.8-16.87L73.8-16.87Q73.63-16.63 73.48-16.39 73.33-16.16 73.19-15.92L73.19-15.92 72.31-13.82Q72.01-13.43 72.01-13.09L72.01-13.09Q72.11-12.87 72.11-12.7L72.11-12.7 72.11-12.45Q72.11-12.23 72.11-12.01 72.11-11.79 72.09-11.57L72.09-11.57Q72.06-11.35 72.06-11.12 72.06-10.89 72.06-10.64L72.06-10.64Q72.06-8.15 72.26-5.76L72.26-5.76Q72.16-5.59 72.16-5.52L72.16-5.52Q72.16-5.18 72.53-4.81L72.53-4.81Q72.89-4.47 72.99-4.2ZM68.3-16.06L68.3-16.06 67.08-15.28Q66.72-15.16 66.11-14.58L66.11-14.58 65.08-13.62 64.06-12.7Q63.71-12.06 63.13-11.62L63.13-11.62Q62.54-11.18 62.15-10.64L62.15-10.64Q61.61-9.96 61.1-9.03 60.59-8.11 60.64-7.47L60.64-7.47Q60.51-7.03 60.38-6.65 60.25-6.27 60.1-5.96L60.1-5.96Q59.81-5.35 59.81-4.54L59.81-4.54Q59.81-3.91 60.22-3.88 60.64-3.86 60.83-3.86L60.83-3.86Q61.56-4.35 62.38-5.29 63.2-6.23 63.87-7.23 64.54-8.23 64.79-8.89L64.79-8.89Q65.32-9.81 66.01-10.86 66.69-11.91 67.52-12.74L67.52-12.74 68.79-14.79Q68.84-14.92 68.89-15.03 68.94-15.14 68.99-15.23L68.99-15.23Q69.08-15.41 69.08-15.67L69.08-15.67Q69.08-15.99 68.89-16.26L68.89-16.26Q68.69-16.26 68.55-16.19 68.4-16.11 68.3-16.06ZM111.9-4.2L111.9-4.2Q112.24-4.2 112.39-4.15L112.39-4.15Q112.54-4.1 112.63-4.1L112.63-4.1Q113.12-4.1 113.89-4.8 114.66-5.49 115.12-5.86L115.12-5.86Q116.13-6.08 116.75-7.14 117.37-8.2 118.15-8.98L118.15-8.98Q119.15-9.99 119.78-10.78 120.4-11.57 120.84-11.57L120.84-11.57Q121.23-11.57 121.4-11.21L121.4-11.21Q121.62-10.77 121.72-10.6L121.72-10.6Q121.62-10.5 121.62-10.3L121.62-10.3Q121.62-10.08 121.52-9.96L121.52-9.96Q121.42-9.81 121.23-9.67L121.23-9.67Q121.03-9.52 120.89-9.33L120.89-9.33 120.4-8.74Q119.76-8.11 119.2-7.13 118.64-6.15 118.09-5.29 117.54-4.42 116.93-4.05L116.93-4.05Q115.64-3.22 114.86-2.29L114.86-2.29Q114.1-1.39 113.17-0.83L113.17-0.83Q113.07-0.83 113.05-0.85L113.05-0.85Q113.02-0.88 112.98-0.88L112.98-0.88Q112.76-0.88 112.66-0.78L112.66-0.78Q112.56-0.68 112.39-0.68L112.39-0.68Q111.49-1.03 110.95-1.45 110.41-1.88 109.56-3.32L109.56-3.32Q109.34-3.69 109.17-4.13L109.17-4.13Q109-4.61 108.78-4.98L108.78-4.98 108.12-6.18Q107.85-6.67 107.85-7.81L107.85-7.81Q107.85-8.3 107.95-9.28 108.04-10.25 108.14-10.84L108.14-10.84Q107.38-10.08 106.75-8.96L106.75-8.96Q106.43-8.42 106.14-7.91 105.85-7.4 105.55-6.93L105.55-6.93Q104.77-5.74 103.87-4.57L103.87-4.57Q102.99-3.44 102.97-2.83L102.97-2.83Q102.67-2.54 102.33-1.98 101.99-1.42 101.81-1.01 101.62-0.61 101.79-0.78L101.79-0.78Q101.11 0.34 99.82 0.81 98.52 1.27 97.4 1.27L97.4 1.27Q97.18 1.25 96.96 1.22 96.74 1.2 96.52 1.17L96.52 1.17Q96.11 1.15 95.69 0.83L95.69 0.83 94.96 0.29Q94.18-0.1 93.88-0.93 93.59-1.76 93.59-2.73L93.59-2.73Q94.2-4.27 94.3-5.49L94.3-5.49Q94.4-6.69 94.86-7.86L94.86-7.86Q95.54-9.67 96.79-11.08 98.03-12.5 99.4-13.67L99.4-13.67Q100.5-14.6 101.93-15.71 103.36-16.82 103.99-17.58L103.99-17.58Q104.77-17.7 105.32-18.05 105.87-18.41 106.43-18.73 106.99-19.04 107.75-19.04L107.75-19.04Q108.87-19.04 109.07-18.65 109.26-18.26 109.66-17.58L109.66-17.58Q109.97-18.38 110.14-19.21L110.14-19.21Q110.24-19.63 110.38-20.02 110.51-20.41 110.68-20.75L110.68-20.75Q110.97-22.27 111.68-23.97 112.39-25.68 113.1-27.12L113.1-27.12Q113.68-28.3 114.26-29.36 114.83-30.42 115.03-30.71L115.03-30.71Q115.78-31.88 116.66-32.69L116.66-32.69Q117.52-33.5 118.15-34.42L118.15-34.42Q118.64-35.01 119.1-35.77L119.1-35.77Q119.59-36.6 119.86-36.77L119.86-36.77Q121.23-36.4 121.3-35.69 121.37-34.99 121.37-34.08L121.37-34.08Q121.37-33.3 121.23-32.52L121.23-32.52 119.57-29.05Q118.88-27.78 118.27-26.46 117.66-25.15 117.13-23.78L117.13-23.78Q116.22-22.02 115.15-20.7L115.15-20.7Q114.61-20.04 114.14-19.34 113.66-18.63 113.22-17.87L113.22-17.87Q113.05-17.36 112.71-16.87L112.71-16.87Q112.54-16.63 112.39-16.39 112.24-16.16 112.1-15.92L112.1-15.92 111.22-13.82Q110.93-13.43 110.93-13.09L110.93-13.09Q111.02-12.87 111.02-12.7L111.02-12.7 111.02-12.45Q111.02-12.23 111.02-12.01 111.02-11.79 111-11.57L111-11.57Q110.97-11.35 110.97-11.12 110.97-10.89 110.97-10.64L110.97-10.64Q110.97-8.15 111.17-5.76L111.17-5.76Q111.07-5.59 111.07-5.52L111.07-5.52Q111.07-5.18 111.44-4.81L111.44-4.81Q111.8-4.47 111.9-4.2ZM107.21-16.06L107.21-16.06 105.99-15.28Q105.63-15.16 105.02-14.58L105.02-14.58 103.99-13.62 102.97-12.7Q102.62-12.06 102.04-11.62L102.04-11.62Q101.45-11.18 101.06-10.64L101.06-10.64Q100.52-9.96 100.01-9.03 99.5-8.11 99.55-7.47L99.55-7.47Q99.43-7.03 99.29-6.65 99.16-6.27 99.01-5.96L99.01-5.96Q98.72-5.35 98.72-4.54L98.72-4.54Q98.72-3.91 99.13-3.88 99.55-3.86 99.74-3.86L99.74-3.86Q100.48-4.35 101.29-5.29 102.11-6.23 102.78-7.23 103.45-8.23 103.7-8.89L103.7-8.89Q104.24-9.81 104.92-10.86 105.6-11.91 106.43-12.74L106.43-12.74 107.7-14.79Q107.75-14.92 107.8-15.03 107.85-15.14 107.9-15.23L107.9-15.23Q108-15.41 108-15.67L108-15.67Q108-15.99 107.8-16.26L107.8-16.26Q107.6-16.26 107.46-16.19 107.31-16.11 107.21-16.06ZM117.32-10.79L117.32-10.79Q117.64-10.96 118.1-11.54 118.56-12.11 119-12.66 119.44-13.21 119.66-13.28L119.66-13.28Q119.81-13.53 119.93-13.7 120.05-13.87 120.3-14.01L120.3-14.01Q120.69-14.72 121.32-15.21L121.32-15.21Q121.98-15.72 122.54-16.31L122.54-16.31Q123.01-16.5 123.48-16.75 123.96-16.99 124.42-17.31L124.42-17.31Q125.38-17.94 126.55-17.97L126.55-17.97Q127.08-17.72 127.6-17.82L127.6-17.82Q128.09-17.92 128.55-17.58L128.55-17.58Q128.82-17.11 128.99-17.02L128.99-17.02Q129.16-16.92 129.28-16.75L129.28-16.75Q129.48-16.14 129.57-15.94L129.57-15.94Q129.7-15.75 129.72-15.53L129.72-15.53Q129.75-15.16 129.77-14.9 129.79-14.65 129.82-14.48L129.82-14.48Q129.84-14.16 129.82-13.87L129.82-13.87Q129.67-12.62 129.33-11.38L129.33-11.38Q129.28-11.23 129.23-11.08 129.18-10.94 129.14-10.77L129.14-10.77Q129.04-10.45 128.89-10.21L128.89-10.21Q128.53-9.74 128.38-9.45L128.38-9.45Q128.16-9.06 128.06-8.94L128.06-8.94Q127.77-8.64 127.51-8.4 127.26-8.15 127.04-7.96L127.04-7.96Q126.82-7.84 126.6-7.7 126.38-7.57 126.16-7.42L126.16-7.42Q125.74-7.15 125.18-7.03L125.18-7.03 124.74-6.76Q124.52-6.62 124.25-6.59L124.25-6.59Q123.81-6.27 123.28-6.08L123.28-6.08Q123.03-5.98 122.78-5.88 122.52-5.79 122.25-5.66L122.25-5.66Q121.88-5.52 121.62-5.32L121.62-5.32Q121.35-5.13 120.93-4.93L120.93-4.93Q120.71-4.86 120.22-4.76L120.22-4.76Q119.76-4.69 119.57-4.59L119.57-4.59Q119.81-4.1 119.76-3.37L119.76-3.37Q119.74-2.69 120-2.15L120-2.15Q120.64-2 121.4-1.93 122.15-1.86 122.84-1.95L122.84-1.95Q122.96-1.98 123.09-2.03 123.23-2.08 123.37-2.12L123.37-2.12Q123.52-2.17 123.67-2.22 123.81-2.27 123.96-2.29L123.96-2.29Q124.5-2.39 125.01-2.54 125.52-2.69 125.91-2.93L125.91-2.93Q127.33-3.42 128.65-4.25 129.97-5.08 130.94-6.05L130.94-6.05Q131.53-6.45 132.24-7.13 132.94-7.81 133.33-8.4L133.33-8.4Q134.07-9.18 134.63-9.62 135.19-10.06 135.68-10.01L135.68-10.01Q136.07-10.01 136.44-9.55 136.8-9.08 136.36-8.54L136.36-8.54Q135.9-8.25 135.34-7.67L135.34-7.67Q134.8-7.08 134.21-6.84L134.21-6.84Q133.8-6.57 133.11-5.76L133.11-5.76Q132.46-5 132.02-4.59L132.02-4.59Q131.92-4.49 131.8-4.37 131.67-4.25 131.5-4.13L131.5-4.13Q131.19-3.88 130.99-3.61L130.99-3.61Q130.23-2.98 129.53-2.54L129.53-2.54Q129.26-2.64 129.09-2.44L129.09-2.44Q128.87-2.17 128.7-2.05L128.7-2.05Q128.62-2 128.55-1.95 128.48-1.9 128.38-1.86L128.38-1.86Q128.28-1.81 128.21-1.76 128.13-1.71 128.06-1.66L128.06-1.66Q127.67-1.32 127.21-0.98 126.74-0.63 126.25-0.39L126.25-0.39Q125.77-0.1 125.28 0.16 124.79 0.42 124.3 0.61L124.3 0.61Q123.81 0.81 123.34 1.07 122.86 1.34 122.4 1.66L122.4 1.66 121.86 1.73Q121.74 1.76 121.62 1.77 121.49 1.78 121.37 1.81L121.37 1.81Q121.1 1.9 120.86 1.9L120.86 1.9Q120.61 1.9 120.25 1.81L120.25 1.81Q118.64 1.37 117.61 0.24L117.61 0.24Q117.47 0.1 117.31-0.04 117.15-0.17 116.98-0.29L116.98-0.29Q116.59-0.59 116.44-0.83L116.44-0.83Q116.22-1.2 115.99-1.98 115.76-2.76 115.59-3.58 115.41-4.39 115.41-4.83L115.41-4.83Q115.56-5.13 115.73-5.85 115.9-6.57 116.03-7.29 116.15-8.01 116.15-8.3L116.15-8.3Q116.24-8.4 116.53-8.95 116.81-9.5 117.06-10.07 117.32-10.64 117.32-10.79ZM125.18-13.92L125.18-13.92Q124.84-13.48 124.5-13.09 124.15-12.7 123.72-12.35L123.72-12.35Q123.42-11.82 123.03-11.38 122.64-10.94 122.25-10.55L122.25-10.55Q122.06-10.16 121.81-9.94 121.57-9.72 121.27-9.47L121.27-9.47Q120.96-8.94 120.49-8.45 120.03-7.96 120.3-7.32L120.3-7.32Q120.83-7.23 121.37-7.47 121.91-7.71 122.3-7.91L122.3-7.91Q122.49-8.03 122.7-8.13 122.91-8.23 123.11-8.33L123.11-8.33Q123.3-8.42 123.5-8.52 123.69-8.62 123.86-8.74L123.86-8.74 125.13-10.01Q125.42-10.28 125.72-10.64L125.72-10.64Q125.84-10.82 125.97-11 126.11-11.18 126.25-11.38L126.25-11.38Q126.38-11.91 126.65-12.38L126.65-12.38Q126.94-12.87 126.89-13.38L126.89-13.38Q126.86-13.6 126.72-13.89L126.72-13.89Q126.57-14.18 126.55-14.36L126.55-14.36Q126.03-14.36 125.79-14.18L125.79-14.18Q125.67-14.09 125.51-14.03 125.35-13.96 125.18-13.92ZM148.81-11.52L148.81-11.52Q149.3-11.4 149.52-11.18L149.52-11.18Q149.69-11.01 149.69-10.79L149.69-10.79Q149.3-10.25 149.23-10.08L149.23-10.08Q149.15-9.91 148.91-9.81L148.91-9.81Q148.59-9.33 148.24-8.9 147.88-8.47 147.47-8.08L147.47-8.08Q146.71-7.35 145.98-6.4L145.98-6.4Q145.66-6.08 145.54-5.91L145.54-5.91Q145.42-5.74 145.1-5.42L145.1-5.42Q144.51-5 144.12-4.57L144.12-4.57Q143.9-4.32 143.67-4.11 143.44-3.91 143.2-3.71L143.2-3.71Q143.07-3.61 142.96-3.53 142.85-3.44 142.73-3.34L142.73-3.34Q142.63-3.25 142.51-3.15 142.39-3.05 142.27-2.93L142.27-2.93Q142.07-2.73 141.83-2.54L141.83-2.54Q141.73-2.47 141.62-2.38 141.51-2.29 141.39-2.2L141.39-2.2Q141.1-1.86 140.8-1.51 140.51-1.17 140.22-0.78L140.22-0.78Q139.7-0.54 139.24-0.2L139.24-0.2Q138.8 0.12 138.21 0.39L138.21 0.39Q137.97 0.54 137.75 0.85L137.75 0.85Q137.56 1.15 137.19 1.27L137.19 1.27Q136.8 1.42 136.36 1.34 135.92 1.27 135.63 1.12L135.63 1.12Q135.31 0.9 135.24 0.88L135.24 0.88Q135.04 0.83 134.99 0.83L134.99 0.83Q134.53 0.17 134.36-0.56L134.36-0.56Q134.26-0.95 134.15-1.34 134.04-1.73 133.92-2.15L133.92-2.15Q133.82-2.39 133.77-2.66 133.72-2.93 133.67-3.27L133.67-3.27 133.6-3.66Q133.58-3.76 133.55-3.87 133.53-3.98 133.48-4.1L133.48-4.1Q133.38-4.35 133.28-4.61 133.19-4.88 133.14-5.18L133.14-5.18Q133.04-5.76 133.06-6.32 133.09-6.88 133.19-7.42L133.19-7.42Q133.48-9.03 134.04-10.5 134.6-11.96 135.19-13.28L135.19-13.28Q135.31-13.89 135.46-14.21L135.46-14.21Q135.6-14.53 135.77-15.09L135.77-15.09Q135.99-15.36 136.12-15.87L136.12-15.87Q136.16-16.09 136.23-16.31 136.29-16.53 136.36-16.75L136.36-16.75Q136.43-16.94 136.53-17.15 136.63-17.36 136.73-17.6L136.73-17.6Q136.92-18.04 137.04-18.51L137.04-18.51Q137.21-19.07 137.31-19.48L137.31-19.48Q137.36-19.73 137.45-19.95 137.53-20.17 137.63-20.36L137.63-20.36Q137.82-20.87 138.01-21.36 138.19-21.85 138.36-22.31L138.36-22.31Q138.53-22.78 138.72-23.24 138.9-23.71 139.09-24.17L139.09-24.17Q139.14-24.32 139.19-24.46 139.24-24.61 139.29-24.76L139.29-24.76Q139.39-25.02 139.58-25.29L139.58-25.29Q139.7-25.63 139.83-25.81L139.83-25.81Q140.02-26.1 140.12-26.27L140.12-26.27Q140.12-26.54 140.29-26.64L140.29-26.64Q140.41-26.71 140.56-26.95L140.56-26.95Q140.83-27.37 140.92-27.73L140.92-27.73Q141.02-28.1 141.29-28.52L141.29-28.52 141.88-29.25Q141.93-29.35 141.97-29.44 142.02-29.54 142.07-29.64L142.07-29.64Q142.19-29.83 142.37-29.98L142.37-29.98Q142.93-30.86 143.54-31.74L143.54-31.74 144.86-33.59Q145.3-34.28 145.83-34.89 146.37-35.5 146.96-36.08L146.96-36.08Q147.15-36.33 147.42-36.62 147.69-36.91 147.98-36.96L147.98-36.96Q148.44-37.01 148.96-36.87L148.96-36.87Q149.1-36.62 149.23-36.35 149.35-36.08 149.45-35.74L149.45-35.74Q149.54-34.23 149.35-32.81 149.15-31.4 148.91-30.03L148.91-30.03Q148.86-29.71 148.88-29.57L148.88-29.57Q148.91-29.42 148.86-29.1L148.86-29.1Q148.76-28.81 148.62-28.34 148.47-27.88 148.37-27.49L148.37-27.49Q148.37-26.83 148.08-26.27L148.08-26.27Q147.79-25.73 147.69-25.2L147.69-25.2Q147.54-25.1 147.52-24.88L147.52-24.88Q147.49-24.66 147.35-24.56L147.35-24.56Q147.22-24 147.03-23.58L147.03-23.58Q146.81-23.14 146.66-22.71L146.66-22.71Q146.3-22.19 145.93-21.7 145.56-21.22 145.17-20.73L145.17-20.73Q144.78-20.26 144.43-19.76 144.07-19.26 143.73-18.75L143.73-18.75Q142.88-17.46 141.95-16.31L141.95-16.31Q141.02-15.16 140.17-13.87L140.17-13.87Q139.48-13.26 139.09-12.65L139.09-12.65Q138.68-11.99 137.97-11.43L137.97-11.43Q137.85-10.94 137.74-10.4 137.63-9.86 137.51-9.3L137.51-9.3Q137.41-8.74 137.29-8.15 137.17-7.57 137.04-6.98L137.04-6.98Q137.02-6.67 136.9-6.32L136.9-6.32Q136.85-6.15 136.8-5.99 136.75-5.83 136.7-5.66L136.7-5.66Q136.6-5.32 136.65-4.83L136.65-4.83Q136.68-4.39 136.51-4L136.51-4Q136.58-3.81 136.63-3.44L136.63-3.44Q136.65-3.13 136.8-2.88L136.8-2.88Q137.07-2.44 137.38-2.44L137.38-2.44Q137.75-2.64 137.78-2.61L137.78-2.61Q137.8-2.59 137.92-2.64L137.92-2.64Q138.17-2.78 138.41-3.03 138.65-3.27 138.85-3.47L138.85-3.47Q139.12-3.59 139.22-3.69L139.22-3.69Q139.29-3.76 139.48-3.91L139.48-3.91Q139.63-4 139.75-4.05L139.75-4.05Q139.88-4.1 139.97-4.2L139.97-4.2Q140.68-4.93 141.29-5.3L141.29-5.3Q141.93-5.66 142.32-6.2L142.32-6.2 143.2-6.74Q143.46-6.88 143.71-7.15L143.71-7.15Q143.93-7.42 144.27-7.57L144.27-7.57Q144.42-7.76 144.46-7.81L144.46-7.81Q144.51-7.86 144.66-8.06L144.66-8.06Q144.95-8.25 145.25-8.45 145.54-8.64 145.81-8.84L145.81-8.84Q146.08-9.03 146.38-9.23 146.69-9.42 147-9.62L147-9.62Q147.1-9.86 147.32-10.01L147.32-10.01Q147.54-10.16 147.69-10.3L147.69-10.3Q147.83-10.45 147.93-10.62L147.93-10.62Q148.05-10.82 148.27-10.84L148.27-10.84Q148.3-11.06 148.49-11.18L148.49-11.18Q148.69-11.3 148.81-11.52ZM146.17-29.74L146.17-29.74 146.13-29.74Q145.69-29.64 145.51-29.3 145.34-28.96 145.2-28.52L145.2-28.52Q145.1-28.32 145.01-28.17 144.93-28.03 144.88-27.93L144.88-27.93Q144.78-27.76 144.81-27.34L144.81-27.34Q144.05-26.1 143.37-24.79 142.68-23.49 142.05-22.12L142.05-22.12Q141.44-20.75 140.8-19.37 140.17-17.99 139.53-16.6L139.53-16.6Q140.53-17.6 141.36-18.95L141.36-18.95Q141.78-19.63 142.23-20.21 142.68-20.8 143.15-21.29L143.15-21.29Q143.49-22.12 143.87-22.9 144.25-23.68 144.66-24.39L144.66-24.39Q145.47-25.76 145.93-27.64L145.93-27.64Q145.73-28.25 145.98-28.69L145.98-28.69Q146.22-29.13 146.17-29.74ZM156.96-24.46L156.96-24.46 157.45-24.32Q157.55-24.19 157.55-24.02L157.55-24.02Q157.55-23.9 157.69-23.78L157.69-23.78Q157.6-23.34 157.52-22.88 157.45-22.41 157.45-21.97L157.45-21.97Q157.45-21.8 157.57-21.63L157.57-21.63Q157.69-21.46 157.69-21.34L157.69-21.34Q157.45-20.78 157.33-20.65L157.33-20.65Q157.21-20.53 157.21-20.41L157.21-20.41Q156.96-20.31 156.84-20.12L156.84-20.12Q156.72-19.92 156.43-19.92L156.43-19.92Q156.33-19.78 156.21-19.7L156.21-19.7Q156.06-19.6 156.03-19.43L156.03-19.43Q155.23-19.09 154.28-19.48L154.28-19.48Q154.01-19.95 153.59-20.12L153.59-20.12Q152.96-21.04 153.54-22.31L153.54-22.31Q153.64-22.56 153.76-22.83 153.89-23.1 153.98-23.19L153.98-23.19Q154.5-23.56 154.77-23.68L154.77-23.68Q154.86-23.73 154.97-23.79 155.08-23.85 155.18-23.93L155.18-23.93Q155.35-24.05 155.69-24.17L155.69-24.17Q155.84-24.22 155.96-24.22L155.96-24.22Q156.16-24.22 156.33-24.32L156.33-24.32Q156.43-24.34 156.51-24.37 156.6-24.39 156.67-24.41L156.67-24.41Q156.86-24.46 156.96-24.46ZM149.64-2.83L149.64-2.83 149.88-2.73Q150.32-2.93 150.96-2.88L150.96-2.88Q151.62-2.83 151.98-3.08L151.98-3.08Q152.23-3.27 152.32-3.37L152.32-3.37Q152.47-3.52 152.67-3.47L152.67-3.47Q153.45-3.76 153.98-4.05L153.98-4.05Q154.55-4.35 155.16-4.49L155.16-4.49Q155.55-4.64 155.84-4.93L155.84-4.93Q156.84-5.25 157.54-5.83 158.23-6.42 159.06-7.08L159.06-7.08Q159.75-7.47 160.21-7.76 160.67-8.06 161.21-8.5L161.21-8.5Q161.33-8.76 161.48-8.86L161.48-8.86Q161.6-8.94 161.75-9.18L161.75-9.18Q162.63-9.18 162.72-8.5L162.72-8.5Q162.48-7.96 162.06-7.62L162.06-7.62Q161.63-7.25 161.31-6.84L161.31-6.84Q160.92-6.59 160.67-6.4 160.43-6.2 160.19-5.81L160.19-5.81Q160.16-5.81 159.89-5.59L159.89-5.59Q159.65-5.37 159.6-5.37L159.6-5.37Q159.21-4.91 159.01-4.81 158.82-4.71 158.33-4.3L158.33-4.3Q158.01-3.76 157.45-3.42L157.45-3.42Q156.4-2.42 155.23-1.73L155.23-1.73Q154.62-1.39 154.08-1.04 153.54-0.68 153.06-0.34L153.06-0.34Q152.81-0.2 152.71-0.07L152.71-0.07Q152.62 0.05 152.37 0.24L152.37 0.24Q152.13 0.44 151.62 0.63 151.1 0.83 150.71 0.98L150.71 0.98Q150.4 1.17 150.18 1.27L150.18 1.27Q149.08 1.32 148.52 0.93L148.52 0.93Q147.88 0.59 147.54 0.39 147.2 0.2 146.95-0.24L146.95-0.24Q146.39-0.51 146.29-1.15L146.29-1.15Q146.24-1.49 146.17-1.81 146.1-2.12 146.02-2.44L146.02-2.44Q145.98-2.69 145.93-3 145.88-3.32 145.93-3.66L145.93-3.66Q146.05-4.22 146.07-4.81L146.07-4.81Q146.1-5.35 146.32-5.86L146.32-5.86Q146.54-6.35 146.59-6.93L146.59-6.93Q146.64-7.52 146.86-8.01L146.86-8.01Q147.17-8.5 147.12-8.54L147.12-8.54Q147.1-8.57 147.15-8.69L147.15-8.69 147.37-8.98Q147.44-9.08 147.59-9.33L147.59-9.33 147.88-10.06Q148.1-10.47 148.32-10.74L148.32-10.74Q148.54-11.04 148.71-11.57L148.71-11.57Q148.83-11.91 148.98-12.11L148.98-12.11Q149.08-12.23 149.16-12.37 149.25-12.5 149.35-12.65L149.35-12.65Q149.47-12.89 149.59-13.26L149.59-13.26Q149.64-13.43 149.7-13.59 149.76-13.75 149.83-13.92L149.83-13.92Q149.98-14.31 150.2-14.7 150.42-15.09 150.66-15.48L150.66-15.48Q150.86-15.87 151.01-16.06 151.15-16.26 151.59-16.31L151.59-16.31Q151.81-16.36 152.03-16.28L152.03-16.28Q152.3-16.21 152.52-16.31L152.52-16.31Q153.15-16.6 153.4-16.6L153.4-16.6Q153.64-16.6 153.74-16.75L153.74-16.75Q154.25-16.72 154.52-16.41L154.52-16.41Q154.79-16.11 155.11-15.82L155.11-15.82Q154.81-14.4 154.45-13.65 154.08-12.89 153.64-12.06L153.64-12.06Q153.4-11.67 153.15-11.18 152.91-10.69 152.71-10.3L152.71-10.3Q152.47-9.77 152.2-9.35L152.2-9.35Q151.88-8.86 151.74-8.4L151.74-8.4 151.52-7.93Q151.37-7.64 151.3-7.47L151.3-7.47Q151.25-7.3 151.19-7.14 151.13-6.98 151.03-6.86L151.03-6.86Q150.93-6.74 150.86-6.6 150.79-6.47 150.71-6.35L150.71-6.35Q150.57-6.05 150.42-5.76 150.27-5.47 150.18-5.13L150.18-5.13Q149.93-4.59 149.88-4.42L149.88-4.42Q149.86-4.37 149.83-4.31 149.81-4.25 149.78-4.2L149.78-4.2Q149.69-3.66 149.49-3.32L149.49-3.32Q149.3-2.98 149.64-2.83ZM166.19-16.89L166.19-16.89Q166.58-16.99 166.63-16.92L166.63-16.92Q166.68-16.85 166.82-16.85L166.82-16.85Q167.02-16.58 166.87-16.06L166.87-16.06Q166.7-15.28 166.19-14.58L166.19-14.58Q165.68-13.87 165.41-13.18L165.41-13.18Q165.24-12.84 165.1-12.59 164.97-12.33 164.87-12.13L164.87-12.13Q164.77-11.96 164.69-11.77 164.6-11.57 164.53-11.38L164.53-11.38Q164.28-10.84 164.04-10.18 163.8-9.52 163.55-8.84L163.55-8.84 163.26-8.2Q163.01-7.67 162.87-7.25 162.72-6.84 162.67-6.2L162.67-6.2 162.67-4.88Q162.72-4.54 162.75-4.17 162.77-3.81 162.79-3.42L162.79-3.42Q162.84-2.61 163.11-2.1L163.11-2.1Q163.72-2.39 164.43-3.1L164.43-3.1Q164.77-3.44 165.08-3.72 165.38-4 165.65-4.2L165.65-4.2Q165.99-4.69 166.41-5.1L166.41-5.1Q166.85-5.54 167.12-6.05L167.12-6.05Q167.7-6.54 167.9-7.32L167.9-7.32Q168.14-7.59 168.36-7.93L168.36-7.93Q168.48-8.11 168.59-8.26 168.7-8.42 168.83-8.59L168.83-8.59Q169.19-9.11 169.46-9.81L169.46-9.81Q169.61-10.23 169.58-10.6L169.58-10.6Q169.56-10.79 169.56-10.99 169.56-11.18 169.56-11.38L169.56-11.38Q169.58-11.79 169.7-12.21L169.7-12.21Q169.8-12.55 169.75-12.99L169.75-12.99Q169.83-13.11 169.92-13.4L169.92-13.4Q170.02-13.7 170.09-13.87L170.09-13.87Q170.19-14.11 170.46-14.4 170.73-14.7 170.97-14.94L170.97-14.94Q171.14-15.16 171.3-15.38 171.46-15.6 171.61-15.82L171.61-15.82Q171.88-16.24 172.34-16.5L172.34-16.5 172.93-16.75Q173.29-16.92 173.51-16.94L173.51-16.94Q173.88-16.99 174.49-17.16L174.49-17.16Q175.12-17.36 175.47-17.24L175.47-17.24Q175.66-17.21 175.83-17.02L175.83-17.02Q176-16.87 176.25-17.04L176.25-17.04Q176.64-16.63 176.64-16.31L176.64-16.31Q176.64-16.02 176.44-15.67L176.44-15.67Q176.12-15.21 176.1-15.11L176.1-15.11Q176.08-15.06 176.05-15 176.03-14.94 176-14.89L176-14.89Q175.56-14.16 175.12-13.28 174.68-12.4 174.39-11.62L174.39-11.62Q174.88-11.38 175.69-11.4 176.49-11.43 177.13-11.57L177.13-11.57Q177.22-11.6 177.31-11.62 177.39-11.65 177.49-11.67L177.49-11.67Q177.59-11.69 177.68-11.72 177.76-11.74 177.86-11.77L177.86-11.77Q178.18-11.87 178.81-11.94L178.81-11.94Q179.32-12.01 179.76-12.21L179.76-12.21Q180.32-12.5 180.45-12.5L180.45-12.5Q180.62-12.5 180.79-12.6L180.79-12.6Q181.25-12.72 181.64-12.84 182.03-12.96 182.35-13.09L182.35-13.09Q182.52-13.13 182.69-13.2 182.86-13.26 183.03-13.35L183.03-13.35Q183.38-13.55 183.67-13.43L183.67-13.43Q183.77-13.33 183.74-13.09L183.74-13.09Q183.72-12.87 183.86-12.6L183.86-12.6Q183.47-12.28 183.28-12.3L183.28-12.3Q182.89-12.11 182.47-11.94 182.06-11.77 181.59-11.6L181.59-11.6 179.86-10.99Q179.27-10.72 179.08-10.77L179.08-10.77Q178.91-10.82 178.64-10.69L178.64-10.69Q177.83-10.33 177.25-10.16L177.25-10.16Q176.76-10.01 176.39-9.81L176.39-9.81Q176.2-9.67 176.12-9.59L176.12-9.59Q176-9.47 175.81-9.42L175.81-9.42Q174.98-9.28 174.39-9.3L174.39-9.3Q173.78-9.33 173.12-8.98L173.12-8.98Q172.98-8.69 172.73-8.33 172.49-7.96 172.19-7.71L172.19-7.71Q171.95-7.23 171.68-6.88 171.41-6.54 171.07-6.15L171.07-6.15Q170.63-5.76 170.19-5.32 169.75-4.88 169.36-4.49L169.36-4.49Q168.68-3.37 167.78-2.42 166.87-1.46 165.9-0.54L165.9-0.54Q165.65-0.51 165.43-0.32L165.43-0.32Q165.26-0.17 164.97-0.05L164.97-0.05Q164.65 0.05 164.47 0.11 164.28 0.17 164.24 0.2L164.24 0.2Q164.14 0.22 163.94 0.34L163.94 0.34Q163.6 0.49 163.43 0.61L163.43 0.61Q163.28 0.71 163.21 0.78L163.21 0.78Q163.09 0.88 162.92 0.88L162.92 0.88Q162.79 0.88 162.67 1.07L162.67 1.07Q162.06 0.95 161.94 1.22L161.94 1.22Q161.75 1.22 161.55 1.27L161.55 1.27Q161.4 1.32 161.21 1.27L161.21 1.27Q161.06 1.15 160.99 1.05L160.99 1.05Q160.89 0.9 160.82 0.83L160.82 0.83Q160.08 0.54 159.94 0.2L159.94 0.2Q159.77-0.17 159.5-0.34L159.5-0.34Q159.28-0.85 159.23-1.51L159.23-1.51Q159.21-1.81 159.18-2.11 159.16-2.42 159.11-2.73L159.11-2.73Q159.08-2.83 159.06-2.92 159.04-3 159.01-3.1L159.01-3.1Q158.99-3.2 158.96-3.28 158.94-3.37 158.91-3.47L158.91-3.47Q158.82-3.86 158.84-4.25L158.84-4.25Q158.86-4.61 158.72-5.03L158.72-5.03Q158.96-5.81 158.77-6.54L158.77-6.54Q158.86-6.88 159.01-7.45 159.16-8.01 159.21-8.4L159.21-8.4Q159.33-9.42 159.58-10.11 159.84-10.79 160.38-11.82L160.38-11.82Q160.57-12.26 160.82-12.7L160.82-12.7Q160.94-12.92 161.06-13.15 161.18-13.38 161.31-13.62L161.31-13.62Q161.43-13.87 161.51-14.03 161.6-14.18 161.62-14.26L161.62-14.26Q161.72-14.43 161.94-14.79L161.94-14.79 162.18-15.23Q162.33-15.48 162.53-15.67L162.53-15.67Q162.92-16.06 163.26-16.28 163.6-16.5 164.09-16.75L164.09-16.75Q164.55-16.65 165.29-16.92 166.02-17.19 166.19-16.89ZM178.73-10.79L178.73-10.79Q179.05-10.96 179.52-11.54 179.98-12.11 180.42-12.66 180.86-13.21 181.08-13.28L181.08-13.28Q181.23-13.53 181.35-13.7 181.47-13.87 181.71-14.01L181.71-14.01Q182.1-14.72 182.74-15.21L182.74-15.21Q183.4-15.72 183.96-16.31L183.96-16.31Q184.42-16.5 184.9-16.75 185.38-16.99 185.84-17.31L185.84-17.31Q186.79-17.94 187.96-17.97L187.96-17.97Q188.5-17.72 189.01-17.82L189.01-17.82Q189.5-17.92 189.97-17.58L189.97-17.58Q190.23-17.11 190.4-17.02L190.4-17.02Q190.58-16.92 190.7-16.75L190.7-16.75Q190.89-16.14 190.99-15.94L190.99-15.94Q191.11-15.75 191.14-15.53L191.14-15.53Q191.16-15.16 191.19-14.9 191.21-14.65 191.23-14.48L191.23-14.48Q191.26-14.16 191.23-13.87L191.23-13.87Q191.09-12.62 190.75-11.38L190.75-11.38Q190.7-11.23 190.65-11.08 190.6-10.94 190.55-10.77L190.55-10.77Q190.45-10.45 190.31-10.21L190.31-10.21Q189.94-9.74 189.79-9.45L189.79-9.45Q189.57-9.06 189.48-8.94L189.48-8.94Q189.18-8.64 188.93-8.4 188.67-8.15 188.45-7.96L188.45-7.96Q188.23-7.84 188.01-7.7 187.79-7.57 187.57-7.42L187.57-7.42Q187.16-7.15 186.6-7.03L186.6-7.03 186.16-6.76Q185.94-6.62 185.67-6.59L185.67-6.59Q185.23-6.27 184.69-6.08L184.69-6.08Q184.45-5.98 184.19-5.88 183.93-5.79 183.67-5.66L183.67-5.66Q183.3-5.52 183.03-5.32L183.03-5.32Q182.76-5.13 182.35-4.93L182.35-4.93Q182.13-4.86 181.64-4.76L181.64-4.76Q181.18-4.69 180.98-4.59L180.98-4.59Q181.23-4.1 181.18-3.37L181.18-3.37Q181.15-2.69 181.42-2.15L181.42-2.15Q182.06-2 182.81-1.93 183.57-1.86 184.25-1.95L184.25-1.95Q184.37-1.98 184.51-2.03 184.64-2.08 184.79-2.12L184.79-2.12Q184.94-2.17 185.08-2.22 185.23-2.27 185.38-2.29L185.38-2.29Q185.91-2.39 186.43-2.54 186.94-2.69 187.33-2.93L187.33-2.93Q188.74-3.42 190.06-4.25 191.38-5.08 192.36-6.05L192.36-6.05Q192.94-6.45 193.65-7.13 194.36-7.81 194.75-8.4L194.75-8.4Q195.48-9.18 196.04-9.62 196.61-10.06 197.09-10.01L197.09-10.01Q197.48-10.01 197.85-9.55 198.22-9.08 197.78-8.54L197.78-8.54Q197.31-8.25 196.75-7.67L196.75-7.67Q196.22-7.08 195.63-6.84L195.63-6.84Q195.21-6.57 194.53-5.76L194.53-5.76Q193.87-5 193.43-4.59L193.43-4.59Q193.33-4.49 193.21-4.37 193.09-4.25 192.92-4.13L192.92-4.13Q192.6-3.88 192.41-3.61L192.41-3.61Q191.65-2.98 190.94-2.54L190.94-2.54Q190.67-2.64 190.5-2.44L190.5-2.44Q190.28-2.17 190.11-2.05L190.11-2.05Q190.04-2 189.97-1.95 189.89-1.9 189.79-1.86L189.79-1.86Q189.7-1.81 189.62-1.76 189.55-1.71 189.48-1.66L189.48-1.66Q189.09-1.32 188.62-0.98 188.16-0.63 187.67-0.39L187.67-0.39Q187.18-0.1 186.69 0.16 186.21 0.42 185.72 0.61L185.72 0.61Q185.23 0.81 184.75 1.07 184.28 1.34 183.81 1.66L183.81 1.66 183.28 1.73Q183.15 1.76 183.03 1.77 182.91 1.78 182.79 1.81L182.79 1.81Q182.52 1.9 182.27 1.9L182.27 1.9Q182.03 1.9 181.66 1.81L181.66 1.81Q180.05 1.37 179.03 0.24L179.03 0.24Q178.88 0.1 178.72-0.04 178.56-0.17 178.39-0.29L178.39-0.29Q178-0.59 177.86-0.83L177.86-0.83Q177.64-1.2 177.4-1.98 177.17-2.76 177-3.58 176.83-4.39 176.83-4.83L176.83-4.83Q176.98-5.13 177.15-5.85 177.32-6.57 177.44-7.29 177.56-8.01 177.56-8.3L177.56-8.3Q177.66-8.4 177.94-8.95 178.22-9.5 178.48-10.07 178.73-10.64 178.73-10.79ZM186.6-13.92L186.6-13.92Q186.25-13.48 185.91-13.09 185.57-12.7 185.13-12.35L185.13-12.35Q184.84-11.82 184.45-11.38 184.06-10.94 183.67-10.55L183.67-10.55Q183.47-10.16 183.23-9.94 182.98-9.72 182.69-9.47L182.69-9.47Q182.37-8.94 181.91-8.45 181.44-7.96 181.71-7.32L181.71-7.32Q182.25-7.23 182.79-7.47 183.32-7.71 183.72-7.91L183.72-7.91Q183.91-8.03 184.12-8.13 184.33-8.23 184.52-8.33L184.52-8.33Q184.72-8.42 184.91-8.52 185.11-8.62 185.28-8.74L185.28-8.74 186.55-10.01Q186.84-10.28 187.13-10.64L187.13-10.64Q187.26-10.82 187.39-11 187.52-11.18 187.67-11.38L187.67-11.38Q187.79-11.91 188.06-12.38L188.06-12.38Q188.35-12.87 188.31-13.38L188.31-13.38Q188.28-13.6 188.13-13.89L188.13-13.89Q187.99-14.18 187.96-14.36L187.96-14.36Q187.45-14.36 187.21-14.18L187.21-14.18Q187.08-14.09 186.93-14.03 186.77-13.96 186.6-13.92ZM208.71-3.86L208.71-3.86Q208.91-4.13 209.01-4.22L209.01-4.22Q209.13-4.35 209.3-4.44L209.3-4.44Q209.91-5.74 210.9-6.49 211.89-7.25 213.01-8.2L213.01-8.2Q213.25-8.2 213.42-8.37L213.42-8.37Q213.6-8.54 213.84-8.64L213.84-8.64Q214.13-8.91 214.4-9.08L214.4-9.08Q214.62-9.23 214.77-9.47L214.77-9.47Q215.33-9.74 215.82-10.21L215.82-10.21Q216.33-10.67 216.82-11.04L216.82-11.04Q217.21-11.13 217.65-10.94L217.65-10.94Q217.84-10.55 217.79-10.11 217.75-9.67 217.31-9.62L217.31-9.62Q217.16-9.47 216.99-9.33 216.82-9.18 216.57-9.13L216.57-9.13Q216.09-9.03 215.94-8.74L215.94-8.74Q215.91-8.28 215.82-8.18L215.82-8.18Q215.72-8.08 215.7-8.01L215.7-8.01Q215.16-7.1 214.5-6.46 213.84-5.81 213.25-4.88L213.25-4.88Q212.99-4.71 212.81-4.35L212.81-4.35Q211.94-3.86 211.52-3.59 211.11-3.32 210.76-2.93L210.76-2.93Q210.47-2.76 210.47-2.64L210.47-2.64Q210.47-2.54 210.37-2.44L210.37-2.44Q209.88-2.03 209.81-1.83L209.81-1.83Q209.74-1.64 209.59-1.51L209.59-1.51Q209.35-1.34 209.16-1.18 208.98-1.03 208.86-0.9L208.86-0.9Q208.57-0.61 208.22-0.49L208.22-0.49Q207.81-0.15 207 0.33 206.2 0.81 205.34 1.06 204.49 1.32 203.93 1.07L203.93 1.07 203.59 0.81Q203.49 0.73 203.24 0.59L203.24 0.59Q202.93 0.2 202.54-0.07L202.54-0.07Q202.19-0.32 201.88-0.78L201.88-0.78Q201.51-1.29 201.41-1.83L201.41-1.83Q201.32-2.39 201.05-2.93L201.05-2.93Q200.92-4.2 201.24-5.03L201.24-5.03Q201.51-5.86 201.83-6.58 202.15-7.3 202.54-7.91L202.54-7.91Q203.29-9.08 203.59-10.69L203.59-10.69Q203.05-11.23 202.98-11.69L202.98-11.69Q202.95-11.94 202.88-12.26 202.8-12.57 202.71-12.99L202.71-12.99Q201.44-12.16 200.36-10.89 199.29-9.62 198.46-8.3L198.46-8.3 197.87-7.23Q197.63-6.76 197.29-6.35L197.29-6.35Q197.04-6.1 197.04-6.03L197.04-6.03Q197.04-5.96 196.95-5.86L196.95-5.86Q196.75-5.62 196.63-5.44 196.51-5.27 196.46-5.18L196.46-5.18Q196.41-5.08 196.36-4.99 196.31-4.91 196.26-4.83L196.26-4.83Q196.12-4.64 196.02-4.54L196.02-4.54Q195.92-4.44 195.77-4.25L195.77-4.25Q195.09-3.27 194.53-2.42L194.53-2.42 193.38-0.68Q193.11-0.27 192.94 0.15L192.94 0.15Q192.77 0.59 192.45 0.93L192.45 0.93Q191.96 0.98 191.89 0.78 191.82 0.59 191.92 0.44L191.92 0.44Q191.33 0.05 191.26-1.07 191.18-2.2 191.48-2.88L191.48-2.88Q191.33-3.32 191.38-3.37L191.38-3.37Q191.43-3.42 191.43-3.52L191.43-3.52Q192.06-4.39 192.72-5.27 193.38-6.15 194.11-6.93L194.11-6.93Q194.24-7.1 194.36-7.28 194.48-7.45 194.58-7.62L194.58-7.62Q194.82-7.98 195.09-8.25L195.09-8.25Q195.5-8.96 196.09-9.72L196.09-9.72Q196.68-10.45 197.04-11.23L197.04-11.23Q197.31-11.5 197.41-11.77L197.41-11.77Q197.53-12.06 197.82-12.26L197.82-12.26Q197.99-12.55 198.13-12.83 198.26-13.11 198.36-13.38L198.36-13.38Q198.51-13.84 198.9-14.31L198.9-14.31Q199-14.65 199.14-14.84 199.29-15.04 199.53-15.28L199.53-15.28Q199.56-15.5 199.8-15.7L199.8-15.7Q200.05-15.89 200.17-16.11L200.17-16.11Q200.29-16.46 200.41-16.55L200.41-16.55Q200.56-16.67 200.56-16.89L200.56-16.89Q200.8-17.14 201.05-17.41 201.29-17.68 201.49-18.07L201.49-18.07Q202.17-18.46 202.44-18.46L202.44-18.46Q202.71-18.46 202.85-18.7L202.85-18.7Q203.05-18.7 203.28-18.7 203.51-18.7 203.78-18.73L203.78-18.73Q204.34-18.77 204.37-18.36L204.37-18.36Q204.39-18.26 204.37-18.12L204.37-18.12Q204.34-18.04 204.32-17.97 204.29-17.9 204.27-17.82L204.27-17.82Q204.29-17.38 204.27-17.36L204.27-17.36Q204.22-17.31 204.22-17.29L204.22-17.29Q204.17-17.09 204.2-16.94L204.2-16.94Q204.22-16.82 204.22-16.5L204.22-16.5Q204.2-16.31 204.17-16.16 204.15-16.02 204.12-15.89L204.12-15.89Q204.07-15.65 204.32-15.33L204.32-15.33Q204.44-15.16 204.61-15.06L204.61-15.06Q204.78-14.97 204.95-14.75L204.95-14.75Q205.08-14.62 205.12-14.45L205.12-14.45Q205.17-14.28 205.29-14.16L205.29-14.16Q205.39-14.04 205.59-13.92L205.59-13.92Q205.78-13.79 205.88-13.57L205.88-13.57Q206.15-13.38 206.05-13.33L206.05-13.33Q205.98-13.28 206.27-13.13L206.27-13.13Q206.83-12.43 207.1-11.62L207.1-11.62Q207.42-11.01 207.64-10.64L207.64-10.64Q207.88-10.25 207.64-9.86L207.64-9.86Q207.49-9.72 207.3-9.28L207.3-9.28Q207.08-9.06 206.91-8.79L206.91-8.79Q206.81-8.62 206.76-8.42L206.76-8.42Q206.74-8.25 206.61-8.11L206.61-8.11Q206.17-7.4 205.71-6.84L205.71-6.84Q205.25-6.27 204.9-5.62L204.9-5.62Q204.93-4.22 205.44-3.56L205.44-3.56Q206.03-2.88 206.17-2.88L206.17-2.88Q206.49-2.83 206.86-3.08L206.86-3.08 207.49-3.47Q207.59-3.52 207.68-3.56 207.76-3.61 207.83-3.66L207.83-3.66Q207.98-3.76 208.18-3.81L208.18-3.81Q208.69-3.98 208.66-3.93L208.66-3.93Q208.64-3.86 208.71-3.86ZM217.16-3.86L217.16-3.86Q217.62-3.76 218.04-4.1L218.04-4.1Q218.48-4.47 218.87-4.69L218.87-4.69Q219.06-4.93 219.33-5.2 219.6-5.47 219.89-5.66L219.89-5.66Q220.23-6.1 220.61-6.52 220.99-6.93 221.41-7.32L221.41-7.32Q221.6-7.57 221.8-7.8 221.99-8.03 222.19-8.25L222.19-8.25Q222.38-8.47 222.58-8.7 222.77-8.94 222.97-9.18L222.97-9.18Q223.16-9.45 223.36-9.81L223.36-9.81Q223.43-9.96 223.52-10.11 223.6-10.25 223.7-10.4L223.7-10.4Q223.97-10.84 224.26-11.18L224.26-11.18Q224.58-11.57 224.73-12.11L224.73-12.11Q224.92-12.43 225.24-12.6L225.24-12.6Q225.56-12.77 225.75-13.09L225.75-13.09Q225.87-13.23 226-13.53L226-13.53Q226.09-13.77 226.29-13.92L226.29-13.92Q226.48-14.06 226.51-14.16L226.51-14.16Q226.56-14.28 226.63-14.36L226.63-14.36Q226.78-14.62 227-14.79L227-14.79Q227.24-15.01 227.41-15.23L227.41-15.23Q228.02-15.72 228.29-15.99L228.29-15.99Q228.56-16.26 229.02-16.55L229.02-16.55Q229.9-16.85 230.8-16.75 231.71-16.65 232.1-16.11L232.1-16.11Q232.12-15.8 232.17-15.49 232.22-15.19 232.27-14.92L232.27-14.92Q232.39-14.33 232.1-13.48L232.1-13.48Q231.9-12.99 231.61-12.5L231.61-12.5Q231.34-12.06 231.17-11.52L231.17-11.52 230.98-11.23Q230.83-11.04 230.78-10.99L230.78-10.99Q230.32-9.67 229.76-8.42L229.76-8.42Q229.49-7.81 229.22-7.18 228.95-6.54 228.68-5.91L228.68-5.91Q229.97-6.54 230.54-6.93L230.54-6.93Q230.85-7.15 231.2-7.36 231.54-7.57 231.9-7.76L231.9-7.76 232.78-8.35Q233-8.5 233.23-8.64 233.47-8.79 233.71-8.94L233.71-8.94Q234.1-9.42 234.59-9.74 235.08-10.06 235.61-10.4L235.61-10.4Q235.96-10.74 236.3-10.96 236.64-11.18 237.03-11.43L237.03-11.43Q237.15-11.52 237.27-11.62 237.4-11.72 237.49-11.82L237.49-11.82Q237.79-12.06 237.96-12.16L237.96-12.16 238.32-12.55Q238.57-12.79 238.74-12.89L238.74-12.89Q239.18-13.06 239.62-13.33L239.62-13.33Q239.86-13.48 239.98-13.57L239.98-13.57Q240.16-13.72 240.4-13.82L240.4-13.82 240.74-14.28Q240.94-14.58 241.28-14.45L241.28-14.45Q241.4-14.6 241.64-14.6L241.64-14.6Q241.94-14.6 242.06-14.5L242.06-14.5Q242.06-14.33 242.13-14.21L242.13-14.21Q242.21-14.09 242.11-13.87L242.11-13.87Q241.86-13.7 241.67-13.5L241.67-13.5Q241.52-13.35 241.18-13.23L241.18-13.23Q240.57-12.57 240.08-12.26L240.08-12.26Q239.62-11.96 239.33-11.43L239.33-11.43Q238.5-10.6 237.62-9.77 236.74-8.94 235.86-8.15L235.86-8.15Q235.59-8.15 235.32-7.96L235.32-7.96Q235.05-7.76 234.83-7.86L234.83-7.86Q234.54-7.98 234.35-7.47L234.35-7.47Q233.08-6.13 231.51-5.08L231.51-5.08Q230.56-4.08 229.32-3.3L229.32-3.3Q228.05-2.49 227.12-1.56L227.12-1.56Q227.02-0.61 226.61 0.32L226.61 0.32Q226.19 1.25 225.95 2.1L225.95 2.1Q225.75 2.51 225.62 2.88 225.48 3.25 225.39 3.56L225.39 3.56Q225.19 4.22 224.87 4.79L224.87 4.79Q224.73 5.62 224.38 6.32 224.04 7.03 223.65 7.71L223.65 7.71Q223.53 8.3 223.16 8.74L223.16 8.74Q222.82 9.16 222.53 9.81L222.53 9.81Q222.41 10.08 222.28 10.28L222.28 10.28Q222.16 10.47 222.04 10.74L222.04 10.74Q221.89 10.99 221.8 11.23L221.8 11.23Q221.7 11.47 221.55 11.72L221.55 11.72 221.36 11.94Q221.31 11.99 221.26 12.05 221.21 12.11 221.16 12.16L221.16 12.16 220.58 13.18Q220.16 14.06 219.57 14.58L219.57 14.58Q219.26 14.84 218.94 15.16 218.62 15.48 218.28 15.82L218.28 15.82Q218.06 16.04 217.87 16.31L217.87 16.31Q217.69 16.55 217.45 16.8L217.45 16.8Q217.13 17.11 216.96 17.26L216.96 17.26Q216.84 17.36 216.72 17.49 216.6 17.63 216.47 17.77L216.47 17.77Q216.08 17.92 215.84 18.24 215.6 18.55 215.35 18.9L215.35 18.9Q215.11 19.04 215.03 19.12L215.03 19.12Q214.96 19.19 214.72 19.34L214.72 19.34Q214.37 19.46 214.23 19.56L214.23 19.56Q214.06 19.68 214.03 19.68L214.03 19.68Q213.72 19.85 213.3 19.9L213.3 19.9Q212.89 19.95 212.62 20.17L212.62 20.17Q212.13 20.17 211.91 19.97 211.69 19.78 211.49 19.53L211.49 19.53Q211.15 18.9 211.26 18.21 211.37 17.53 211.59 16.77 211.81 16.02 211.74 15.19L211.74 15.19Q212.01 14.4 212.03 13.87L212.03 13.87Q212.05 13.38 212.23 12.89L212.23 12.89Q212.59 12.28 212.62 12.11L212.62 12.11Q212.64 11.89 212.91 11.77L212.91 11.77Q212.96 11.45 213.06 11.28L213.06 11.28Q213.18 11.08 213.2 10.84L213.2 10.84Q213.35 10.74 213.45 10.6L213.45 10.6Q213.54 10.47 213.74 10.35L213.74 10.35Q213.98 9.86 214.18 9.45 214.37 9.03 214.5 8.69L214.5 8.69Q214.62 8.35 214.78 8.01 214.94 7.67 215.11 7.32L215.11 7.32Q215.18 7.13 215.24 6.95 215.3 6.76 215.35 6.59L215.35 6.59Q215.4 6.42 215.46 6.26 215.52 6.1 215.6 5.96L215.6 5.96Q215.81 5.47 216.25 4.88L216.25 4.88 217.06 3.81Q217.23 3.59 217.35 3.43 217.47 3.27 217.52 3.17L217.52 3.17Q217.67 2.93 217.74 2.83L217.74 2.83Q218.16 2.54 218.11 2.47L218.11 2.47Q218.09 2.39 218.13 2.39L218.13 2.39Q218.79 1.73 219.4 1.22L219.4 1.22Q219.7 0.88 219.99 0.59 220.28 0.29 220.67 0.05L220.67 0.05Q220.97-0.29 221.26-0.59 221.55-0.88 221.94-1.12L221.94-1.12Q222.33-1.39 222.69-1.7 223.04-2 223.36-2.32L223.36-2.32Q223.68-2.66 224.02-2.95 224.36-3.25 224.73-3.52L224.73-3.52Q224.85-4.25 225.07-4.74L225.07-4.74Q225.29-5.2 225.41-5.91L225.41-5.91Q225.6-6.25 225.75-6.69 225.9-7.13 226-7.52L226-7.52Q226.14-7.67 226.22-7.91L226.22-7.91Q226.31-8.25 226.39-8.45L226.39-8.45Q226.63-8.91 226.63-9.28L226.63-9.28Q226.68-9.67 226.68-9.79L226.68-9.79Q226.68-10.03 226.78-10.3L226.78-10.3Q226.83-10.64 226.83-10.99L226.83-10.99Q226.41-10.62 226.22-10.3L226.22-10.3Q225.97-9.91 225.7-9.57L225.7-9.57Q225.6-9.47 225.48-9.35 225.36-9.23 225.31-8.98L225.31-8.98Q225.02-8.67 224.97-8.64L224.97-8.64Q224.87-8.62 224.87-8.5L224.87-8.5Q224.31-7.86 223.76-7.21 223.21-6.57 222.65-5.88L222.65-5.88Q222.11-5.2 221.55-4.55 220.99-3.91 220.43-3.27L220.43-3.27Q219.99-2.88 219.5-2.51 219.01-2.15 218.48-1.76L218.48-1.76Q218.28-1.61 218.05-1.43 217.82-1.25 217.55-1.05L217.55-1.05Q216.99-0.63 216.23-0.88L216.23-0.88Q215.11-0.44 214.4-1.05 213.69-1.66 213.3-2.39L213.3-2.39Q213.1-2.69 212.98-2.91 212.86-3.13 212.91-3.66L212.91-3.66Q212.96-3.93 213.02-4.21 213.08-4.49 213.15-4.76L213.15-4.76Q213.23-5.03 213.29-5.35 213.35-5.66 213.4-6.01L213.4-6.01Q213.45-6.27 213.5-6.54 213.54-6.81 213.57-7.08L213.57-7.08Q213.64-7.59 213.79-8.2L213.79-8.2Q213.93-8.89 214.18-9.52 214.42-10.16 214.76-10.6L214.76-10.6Q214.89-10.96 215.01-11.32 215.13-11.67 215.23-11.99L215.23-11.99Q215.35-12.33 215.46-12.66 215.57-12.99 215.69-13.33L215.69-13.33Q215.94-14.11 216.28-14.84 216.62-15.58 217.01-16.26L217.01-16.26Q217.26-16.6 217.47-16.87 217.69-17.14 217.94-17.43L217.94-17.43Q218.43-17.48 218.72-17.6 219.01-17.72 219.31-17.87L219.31-17.87Q219.48-17.92 219.65-17.97 219.82-18.02 219.99-18.04L219.99-18.04Q220.16-18.09 220.32-18.13 220.48-18.16 220.62-18.21L220.62-18.21Q221.16-18.46 221.31-18.43L221.31-18.43Q221.43-18.41 221.55-18.55L221.55-18.55Q221.65-18.31 221.85-18.24L221.85-18.24Q222.06-18.16 222.09-17.92L222.09-17.92Q222.09-17.58 221.82-17.09L221.82-17.09Q221.58-16.63 221.45-16.36L221.45-16.36Q221.36-16.19 221.26-15.99 221.16-15.8 221.06-15.58L221.06-15.58Q220.87-15.11 220.62-14.79L220.62-14.79Q220.58-14.58 220.51-14.36 220.45-14.14 220.36-13.94L220.36-13.94Q220.26-13.75 220.18-13.53 220.11-13.31 220.04-13.09L220.04-13.09Q219.55-12.55 219.18-11.87 218.82-11.18 218.43-10.4L218.43-10.4Q218.33-10.16 218.21-9.96L218.21-9.96Q218.11-9.79 217.99-9.52L217.99-9.52Q217.94-9.3 217.9-9.08 217.87-8.86 217.82-8.64L217.82-8.64Q217.79-8.42 217.74-8.2 217.69-7.98 217.65-7.76L217.65-7.76Q217.45-7.25 217.35-6.64L217.35-6.64Q217.26-5.96 217.21-5.27 217.16-4.59 217.16-3.86ZM224.14 0.34L224.14 0.34 224.09 0.34Q223.14 0.95 222.38 1.73L222.38 1.73Q222.02 2.12 221.64 2.5 221.26 2.88 220.87 3.27L220.87 3.27Q220.7 3.47 220.53 3.65 220.36 3.83 220.18 4.03L220.18 4.03Q219.82 4.44 219.55 4.83L219.55 4.83Q219.31 5.27 219.04 5.74 218.77 6.2 218.38 6.59L218.38 6.59Q217.77 7.15 217.65 7.45L217.65 7.45Q217.57 7.62 217.5 7.75 217.43 7.89 217.35 8.01L217.35 8.01 216.99 8.76Q216.89 8.94 216.79 9.12 216.69 9.3 216.57 9.47L216.57 9.47Q216.35 9.89 216.13 10.45L216.13 10.45Q215.91 11.01 215.69 11.43L215.69 11.43Q215.35 12.3 215.16 13.11 214.96 13.92 215.01 14.75L215.01 14.75 215.01 15.11Q215.01 15.26 215.16 15.38L215.16 15.38Q215.38 15.38 215.89 15.19L215.89 15.19Q216.28 14.84 216.64 14.5 217.01 14.16 217.35 13.77L217.35 13.77Q218.04 12.99 218.82 12.21L218.82 12.21Q219.5 11.43 220.04 10.52 220.58 9.62 220.97 8.5L220.97 8.5Q221.11 8.23 221.23 7.95 221.36 7.67 221.45 7.35L221.45 7.35Q221.63 6.76 221.94 6.25L221.94 6.25Q222.21 5.47 222.49 4.71 222.77 3.96 223.07 3.25L223.07 3.25Q223.7 1.73 224.14 0.34Z" opacity="1" transform="matrix(1,0,0,1,0,0)" fill="#d6bc0e" class="wordmark-text-0" data-fill-palette-color="primary" id="text-0"></path></svg></g></svg></g><g transform="matrix(1,0,0,1,163.310208,116.0668722397612)"><svg viewBox="0 0 232.209792 25.06461821835141" height="25.06461821835141" width="232.209792"><g transform="matrix(1,0,0,1,0,0)"><svg width="232.209792" viewBox="2 -37.45 444.89 48.03" height="25.06461821835141" data-palette-color="#009b7d"><path d="M27.53-30.7L17.07-30.7 17.07 0 12.75 0 12.75-30.7 2-30.7 2-34.43 27.98-34.43 27.53-30.7ZM53.87-18.38L53.87-5.75Q53.87-4.17 54.4-3.45 54.92-2.73 56.02-2.38L56.02-2.38 55 0.58Q53.3 0.35 52.02-0.51 50.75-1.38 50.17-3.13L50.17-3.13Q48.75-1.3 46.62-0.36 44.5 0.58 41.92 0.58L41.92 0.58Q37.97 0.58 35.7-1.65 33.42-3.88 33.42-7.55L33.42-7.55Q33.42-11.63 36.6-13.8 39.77-15.98 45.77-15.98L45.77-15.98 49.65-15.98 49.65-18.18Q49.65-21.03 47.98-22.21 46.32-23.4 43.37-23.4L43.37-23.4Q42.07-23.4 40.32-23.09 38.57-22.78 36.52-22.05L36.52-22.05 35.42-25.23Q37.85-26.13 39.97-26.5 42.1-26.88 44.02-26.88L44.02-26.88Q48.95-26.88 51.41-24.59 53.87-22.3 53.87-18.38L53.87-18.38ZM43-2.63L43-2.63Q44.95-2.63 46.72-3.61 48.5-4.6 49.65-6.35L49.65-6.35 49.65-13.13 45.85-13.13Q41.5-13.13 39.71-11.63 37.92-10.13 37.92-7.6L37.92-7.6Q37.92-5.15 39.19-3.89 40.45-2.63 43-2.63ZM73.97-2.9L73.97-2.9Q77-2.9 78.76-4.04 80.52-5.18 80.52-7.08L80.52-7.08Q80.52-8.28 80.08-9.15 79.65-10.03 78.3-10.73 76.95-11.43 74.15-12.13L74.15-12.13Q71.42-12.8 69.41-13.69 67.4-14.58 66.28-16 65.17-17.43 65.17-19.7L65.17-19.7Q65.17-21.93 66.43-23.54 67.7-25.15 69.95-26.01 72.2-26.88 75.17-26.88L75.17-26.88Q78.34-26.88 80.71-26.04 83.07-25.2 84.72-23.98L84.72-23.98 82.87-21.13Q81.37-22.15 79.57-22.81 77.77-23.48 75.22-23.48L75.22-23.48Q72.12-23.48 70.82-22.51 69.52-21.55 69.52-20.03L69.52-20.03Q69.52-18.88 70.16-18.11 70.8-17.35 72.32-16.74 73.84-16.13 76.52-15.4L76.52-15.4Q79.09-14.73 81.01-13.78 82.92-12.83 84-11.28 85.07-9.73 85.07-7.28L85.07-7.28Q85.07-4.48 83.47-2.74 81.87-1 79.33-0.21 76.8 0.58 73.97 0.58L73.97 0.58Q70.4 0.58 67.88-0.46 65.37-1.5 63.67-2.98L63.67-2.98 66.07-5.75Q67.62-4.48 69.63-3.69 71.65-2.9 73.97-2.9ZM114.29-4.17L115.92-1.33Q114.57-0.43 112.64 0.08 110.72 0.58 108.87 0.58L108.87 0.58Q104.62 0.58 102.32-1.65 100.02-3.88 100.02-7.38L100.02-7.38 100.02-23.08 93.97-23.08 93.97-26.33 100.02-26.33 100.02-32.3 104.22-32.8 104.22-26.33 113.32-26.33 112.82-23.08 104.22-23.08 104.22-7.43Q104.22-5.23 105.38-4.08 106.54-2.93 109.24-2.93L109.24-2.93Q110.72-2.93 111.97-3.28 113.22-3.63 114.29-4.17L114.29-4.17ZM142.56-26.33L146.92-26.33 137.67 0.18Q136.74 2.85 135.33 5.08 133.92 7.3 131.65 8.76 129.39 10.23 125.92 10.58L125.92 10.58 125.27 7.23Q127.99 6.78 129.56 5.85 131.14 4.93 132.05 3.48 132.97 2.02 133.67 0L133.67 0 132.27 0 123.07-26.33 127.57-26.33 135.12-3.2 142.56-26.33ZM203.86-18.38L203.86-5.75Q203.86-4.17 204.39-3.45 204.91-2.73 206.01-2.38L206.01-2.38 204.99 0.58Q203.29 0.35 202.01-0.51 200.74-1.38 200.16-3.13L200.16-3.13Q198.74-1.3 196.61-0.36 194.49 0.58 191.91 0.58L191.91 0.58Q187.96 0.58 185.69-1.65 183.41-3.88 183.41-7.55L183.41-7.55Q183.41-11.63 186.59-13.8 189.76-15.98 195.76-15.98L195.76-15.98 199.64-15.98 199.64-18.18Q199.64-21.03 197.97-22.21 196.31-23.4 193.36-23.4L193.36-23.4Q192.06-23.4 190.31-23.09 188.56-22.78 186.51-22.05L186.51-22.05 185.41-25.23Q187.84-26.13 189.96-26.5 192.09-26.88 194.01-26.88L194.01-26.88Q198.94-26.88 201.4-24.59 203.86-22.3 203.86-18.38L203.86-18.38ZM192.99-2.63L192.99-2.63Q194.94-2.63 196.71-3.61 198.49-4.6 199.64-6.35L199.64-6.35 199.64-13.13 195.84-13.13Q191.49-13.13 189.7-11.63 187.91-10.13 187.91-7.6L187.91-7.6Q187.91-5.15 189.17-3.89 190.44-2.63 192.99-2.63ZM219.21 0L215.01 0 215.01-26.33 218.58-26.33 218.91-22.68Q220.51-24.7 222.92-25.79 225.33-26.88 227.61-26.88L227.61-26.88Q231.48-26.88 233.25-24.83 235.01-22.78 235.01-19.13L235.01-19.13 235.01 0 230.81 0 230.81-16.03Q230.81-18.73 230.51-20.39 230.21-22.05 229.26-22.81 228.31-23.58 226.31-23.58L226.31-23.58Q224.76-23.58 223.4-22.9 222.03-22.23 220.97-21.21 219.91-20.2 219.21-19.18L219.21-19.18 219.21 0ZM260.75-23.78L260.75-37.45 264.96-36.93 264.96 0 261.28 0 260.88-3.48Q259.41-1.38 257.49-0.4 255.58 0.58 253.41 0.58L253.41 0.58Q249.98 0.58 247.76-1.15 245.53-2.88 244.46-5.96 243.38-9.05 243.38-13.13L243.38-13.13Q243.38-17.07 244.61-20.19 245.83-23.3 248.14-25.09 250.46-26.88 253.71-26.88L253.71-26.88Q255.98-26.88 257.71-26.09 259.43-25.3 260.75-23.78L260.75-23.78ZM254.81-23.5L254.81-23.5Q251.51-23.5 249.73-20.93 247.96-18.35 247.96-13.13L247.96-13.13Q247.96-9.73 248.68-7.43 249.41-5.13 250.82-3.98 252.23-2.83 254.28-2.83L254.28-2.83Q256.53-2.83 258.12-4.1 259.71-5.38 260.75-6.98L260.75-6.98 260.75-20.13Q259.68-21.73 258.16-22.61 256.63-23.5 254.81-23.5ZM328.8-34.43L317.18-13.28 317.18 0 312.78 0 312.78-13.23 301.15-34.43 305.95-34.43 315.08-17.18 324.3-34.43 328.8-34.43ZM335-26.33L339.2-26.33 339.2-7.68Q339.2-5.08 340.27-3.93 341.35-2.78 343.62-2.78L343.62-2.78Q345.8-2.78 347.74-4.01 349.67-5.25 350.75-6.95L350.75-6.95 350.75-26.33 354.95-26.33 354.95 0 351.37 0 351.02-3.55Q349.47-1.55 347.2-0.49 344.92 0.58 342.6 0.58L342.6 0.58Q338.77 0.58 336.89-1.46 335-3.5 335-7.18L335-7.18 335-26.33ZM382.35-26.88L382.35-26.88Q383.62-26.88 384.78-26.33 385.95-25.78 386.7-24.2 387.45-22.63 387.45-19.6L387.45-19.6 387.45 0 383.55 0 383.55-18.93Q383.55-21.4 383.25-22.5 382.95-23.6 381.52-23.6L381.52-23.6Q380.35-23.6 379.18-22.86 378.02-22.13 376.92-20.45L376.92-20.45 376.92 0 373 0 373-18.93Q373-21.4 372.7-22.5 372.4-23.6 370.97-23.6L370.97-23.6Q369.75-23.6 368.61-22.86 367.47-22.13 366.37-20.45L366.37-20.45 366.37 0 362.5 0 362.5-26.33 365.8-26.33 366.05-23.28Q367.12-24.8 368.46-25.84 369.8-26.88 371.77-26.88L371.77-26.88Q373.27-26.88 374.6-26.16 375.92-25.45 376.55-23.4L376.55-23.4Q377.62-24.95 378.97-25.91 380.32-26.88 382.35-26.88ZM412.34-26.88L412.34-26.88Q413.62-26.88 414.78-26.33 415.94-25.78 416.69-24.2 417.44-22.63 417.44-19.6L417.44-19.6 417.44 0 413.54 0 413.54-18.93Q413.54-21.4 413.24-22.5 412.94-23.6 411.52-23.6L411.52-23.6Q410.34-23.6 409.18-22.86 408.02-22.13 406.92-20.45L406.92-20.45 406.92 0 402.99 0 402.99-18.93Q402.99-21.4 402.69-22.5 402.39-23.6 400.97-23.6L400.97-23.6Q399.74-23.6 398.61-22.86 397.47-22.13 396.37-20.45L396.37-20.45 396.37 0 392.49 0 392.49-26.33 395.79-26.33 396.04-23.28Q397.12-24.8 398.46-25.84 399.79-26.88 401.77-26.88L401.77-26.88Q403.27-26.88 404.59-26.16 405.92-25.45 406.54-23.4L406.54-23.4Q407.62-24.95 408.97-25.91 410.32-26.88 412.34-26.88ZM442.54-26.33L446.89-26.33 437.64 0.18Q436.72 2.85 435.3 5.08 433.89 7.3 431.63 8.76 429.37 10.23 425.89 10.58L425.89 10.58 425.24 7.23Q427.97 6.78 429.54 5.85 431.12 4.93 432.03 3.48 432.94 2.02 433.64 0L433.64 0 432.24 0 423.04-26.33 427.54-26.33 435.09-3.2 442.54-26.33Z" opacity="1" transform="matrix(1,0,0,1,0,0)" fill="#009b7d" class="slogan-text-1" data-fill-palette-color="secondary" id="text-1"></path></svg></g></svg></g></svg></g></svg></g><g transform="matrix(1,0,0,1,417.687409553194,0)"><svg viewBox="0 0 195.04371981311164 195.04371981311164" height="195.04371981311164" width="195.04371981311164"><g><svg xmlns="http://www.w3.org/2000/svg" xmlns:xlink="http://www.w3.org/1999/xlink" version="1.1" x="0" y="0" viewBox="1 1 62 62" style="enable-background:new 0 0 64 64;" xml:space="preserve" height="195.04371981311164" width="195.04371981311164" class="icon-icon-0" data-fill-palette-color="accent" id="icon-0"><path d="M62 1H52C42.647 1 34.71 7.149 32 15.614 29.29 7.149 21.353 1 12 1H2A1 1 0 0 0 1 2V12C1 21.352 7.149 29.29 15.614 32 7.149 34.71 1 42.648 1 52V62A1 1 0 0 0 2 63H12C21.353 63 29.29 56.851 32 48.386 34.71 56.851 42.647 63 52 63H62A1 1 0 0 0 63 62V52C63 42.648 56.851 34.71 48.386 32 56.851 29.29 63 21.352 63 12V2A1 1 0 0 0 62 1M3 12V3H12C22.477 3 31 11.523 31 22V31H22C11.523 31 3 22.477 3 12M12 61H3V52C3 41.523 11.523 33 22 33H31V42C31 52.477 22.477 61 12 61M61 52V61H52C41.523 61 33 52.477 33 42V33H42C52.477 33 61 41.523 61 52M61 12C61 22.477 52.477 31 42 31H33V22C33 11.523 41.523 3 52 3H61z" fill="#ffbf5d" data-fill-palette-color="accent"></path></svg></g></svg></g></svg></g><defs></defs></svg><rect width="395.52" height="125.90137560052631" fill="none" stroke="none" visibility="hidden"></rect></g></svg></g></svg>